<svg xmlns="http://www.w3.org/2000/svg" width="1024" height="1024" viewBox="0 0 1024 1024" version="1.1"><path d="M 501.994 217.260 C 499.522 219.514, 486.925 230.148, 474 240.891 C 461.075 251.633, 450.006 260.902, 449.402 261.488 C 448.051 262.799, 424.045 283.005, 406.500 297.599 C 352.374 342.622, 342.982 350.516, 324.520 366.500 C 315.627 374.200, 303.236 384.775, 296.986 390 C 290.736 395.225, 282.220 402.447, 278.061 406.049 C 273.903 409.651, 265.811 416.401, 260.081 421.049 L 249.661 429.500 280.081 430 L 310.500 430.500 310.128 507.577 C 309.923 549.970, 310.066 585.632, 310.445 586.827 L 311.135 589 508.567 589 L 706 589 706 509.500 L 706 430 736.559 430 C 755.838 430, 766.899 429.645, 766.524 429.040 C 766.198 428.511, 756.384 420.329, 744.715 410.856 C 733.047 401.383, 723.275 393.354, 723 393.013 C 722.063 391.852, 697.773 371.528, 686.533 362.500 C 680.370 357.550, 670.767 349.675, 665.192 345 L 655.057 336.500 655.029 306.750 L 655 277 659 277 L 663 277 663 264.393 C 663 253.308, 662.809 251.859, 661.418 252.393 C 660.548 252.727, 647.048 253, 631.418 253 L 603 253 603 265 L 603 277 607.500 277 L 612 277 612 288 C 612 294.050, 611.791 299, 611.536 299 C 611.018 299, 580.169 274.229, 563.981 260.814 C 551.409 250.395, 529.470 232.154, 517.895 222.495 C 513.278 218.642, 508.822 214.965, 507.994 214.325 C 506.773 213.381, 505.640 213.935, 501.994 217.260 M 501.500 315.094 C 470.427 318.895, 453.477 351.412, 467.438 380.438 C 470.794 387.416, 477.214 394.843, 483.522 399.044 C 492.276 404.876, 510.147 406.766, 521.909 403.105 C 543.012 396.537, 555.537 375.421, 552.087 352.225 C 550.076 338.708, 541.074 325.649, 529.801 319.898 C 522.085 315.962, 510.491 313.994, 501.500 315.094 M 504 329.281 C 504 332.364, 503.637 332.792, 500.135 333.841 C 494.595 335.501, 491.402 338.380, 489.459 343.468 C 486.231 351.920, 490.155 359.821, 498.834 362.345 L 503.500 363.702 503.796 370.351 C 504.068 376.479, 503.931 377, 502.046 377 C 499.926 377, 496 373.753, 496 372 C 496 371.450, 493.975 371, 491.500 371 C 489.025 371, 487 371.239, 487 371.532 C 487 373.129, 490.381 379.777, 492.152 381.662 C 493.283 382.865, 496.411 384.379, 499.104 385.025 C 503.775 386.146, 504 386.356, 504 389.600 C 504 392.900, 504.118 393, 508 393 C 511.845 393, 512 392.874, 512.004 389.750 C 512.007 386.816, 512.516 386.257, 517.251 384 C 523.626 380.961, 526.385 376.716, 526.385 369.946 C 526.385 362.709, 522.067 357.575, 514.725 356.081 C 511.516 355.428, 511.499 355.391, 511.204 348.712 C 510.867 341.060, 512.149 340.058, 516.591 344.500 C 518.415 346.324, 520.161 347, 523.045 347 C 527.585 347, 527.919 346.020, 525.005 341.241 C 522.740 337.526, 517.544 334.009, 514.310 334.004 C 512.503 334.001, 512.067 333.346, 511.810 330.250 C 511.517 326.704, 511.296 326.483, 507.750 326.190 C 504.091 325.887, 504 325.962, 504 329.281 M 499 344 C 497.001 345.999, 496.371 350.462, 497.775 352.671 C 498.185 353.315, 499.753 354.151, 501.260 354.529 L 504 355.217 504 348.608 C 504 341.340, 502.782 340.218, 499 344 M 511 370.500 C 511 377.641, 511.970 378.540, 515.811 374.961 C 519.732 371.309, 517.638 364, 512.671 364 C 511.281 364, 511 365.093, 511 370.500 M 504.712 424.784 L 500 429.569 500 461.284 L 500 493 510.500 493 L 521 493 521 461.716 L 521 430.432 515.719 425.216 C 512.814 422.347, 510.209 420, 509.931 420 C 509.653 420, 507.304 422.153, 504.712 424.784 M 356 461.500 L 356 485 373 485 L 390 485 390 461.500 L 390 438 373 438 L 356 438 356 461.500 M 401.232 461.250 L 401.500 484.500 418.250 484.774 L 435 485.048 435 461.524 L 435 438 417.982 438 L 400.963 438 401.232 461.250 M 581.762 438.750 C 581.566 439.163, 581.467 443.100, 581.542 447.500 C 581.618 451.900, 581.751 462.137, 581.840 470.250 L 582 485 598.500 485 L 615 485 615 461.500 L 615 438 598.559 438 C 589.516 438, 581.958 438.337, 581.762 438.750 M 627 461.500 L 627 485 644 485 L 661 485 661 461.500 L 661 438 644 438 L 627 438 627 461.500 M 468.216 454.281 L 463 459.563 463 476.281 L 463 493 474 493 L 485 493 485 476.216 L 485 459.432 479.719 454.216 C 476.814 451.347, 474.211 449, 473.934 449 C 473.658 449, 471.085 451.377, 468.216 454.281 M 541.097 463.750 L 536.028 469.500 536.014 481.250 L 536 493 547 493 L 558 493 558 480.716 L 558 468.432 552.719 463.216 C 549.814 460.347, 547.151 458, 546.801 458 C 546.452 458, 543.885 460.587, 541.097 463.750 M 356 520.500 L 356 544 373 544 L 390 544 390 520.500 L 390 497 373 497 L 356 497 356 520.500 M 402 520.500 L 402 544 418.500 544 L 435 544 435 520.500 L 435 497 418.500 497 L 402 497 402 520.500 M 581 514.353 C 581 523.898, 581.289 534.473, 581.642 537.853 L 582.285 544 598.642 544 L 615 544 615 520.500 L 615 497 598 497 L 581 497 581 514.353 M 627 520.500 L 627 544 644 544 L 661 544 661 520.500 L 661 497 644 497 L 627 497 627 520.500 M 253.035 502.934 C 252.466 503.998, 252 507.148, 252 509.934 L 252 515 245.700 515 C 239.018 515, 237 516.044, 237 519.500 C 237 522.956, 239.018 524, 245.700 524 L 252 524 252 529.800 C 252 535.972, 253.113 538, 256.500 538 C 259.887 538, 261 535.972, 261 529.800 L 261 524 267.300 524 C 273.982 524, 276 522.956, 276 519.500 C 276 516.044, 273.982 515, 267.300 515 L 261 515 261 508.607 C 261 503.700, 260.632 502.073, 259.418 501.607 C 256.493 500.484, 254.077 500.987, 253.035 502.934 M 756.200 502.200 C 755.540 502.860, 755 506.010, 755 509.200 L 755 515 748.750 515.015 C 741.380 515.033, 739.750 515.839, 739.750 519.461 C 739.750 523.541, 741.270 524.339, 748.595 524.102 L 755.273 523.886 754.602 528.944 C 753.852 534.595, 754.911 537.520, 758.071 538.522 C 761.801 539.706, 764 536.488, 764 529.845 L 764 524 770.300 524 C 776.982 524, 779 522.956, 779 519.500 C 779 515.966, 777 515, 769.686 515 L 762.773 515 763.458 510.433 C 764.513 503.397, 760.057 498.343, 756.200 502.200 M 463.699 505.634 C 463.315 506.019, 463 520.783, 463 538.444 C 463 573.700, 462.947 573.370, 469.151 576.578 C 473.167 578.655, 479.042 577.648, 482.141 574.351 L 484.500 571.841 484.500 538.671 L 484.500 505.500 474.449 505.217 C 468.922 505.062, 464.084 505.249, 463.699 505.634 M 500 537.923 L 500 570.847 502.497 573.814 C 503.870 575.446, 506.166 577.076, 507.598 577.435 C 511.176 578.333, 516.560 576.374, 518.984 573.293 C 520.912 570.842, 521 569.301, 521 537.865 L 521 505 510.500 505 L 500 505 500 537.923 M 536 537.050 C 536 572.969, 536.161 573.916, 542.728 576.660 C 547.317 578.577, 551.966 577.729, 555.090 574.405 L 557.500 571.841 557.788 538.421 L 558.077 505 547.038 505 L 536 505 536 537.050 M 257.900 607.978 C 244.232 608.362, 238.863 608.864, 237.650 609.872 C 235.197 611.913, 235.594 616.685, 238.455 619.545 L 240.909 622 508.455 622 C 773.518 622, 776.018 621.982, 777.975 620.025 C 781.404 616.596, 781.624 613.170, 778.609 610.155 L 775.954 607.500 526.227 607.478 C 388.877 607.466, 268.130 607.691, 257.900 607.978 M 270.500 647.933 C 265.099 649.235, 259.929 652.224, 257.603 655.391 C 253.213 661.368, 252.500 664.736, 252.500 679.500 C 252.500 691.994, 252.736 693.940, 254.691 697.595 C 261.660 710.617, 278.046 714.044, 288.684 704.704 C 294.792 699.341, 295.953 695.428, 295.978 680.116 C 295.990 672.755, 295.486 665.018, 294.859 662.922 C 291.850 652.882, 280.062 645.628, 270.500 647.933 M 687.395 648.191 C 682.109 649.311, 675.825 654.713, 673.123 660.462 C 671.286 664.370, 671 666.802, 671 678.521 C 671 693.560, 671.703 696.314, 677.116 702.480 C 685.246 711.739, 699.856 712.403, 707.702 703.868 C 710.792 700.507, 713.256 694.155, 712.554 691.358 C 712.042 689.320, 711.355 689, 707.481 689 C 704.186 689, 703 689.393, 703 690.484 C 703 691.301, 701.687 693.438, 700.082 695.234 C 697.577 698.038, 696.504 698.500, 692.500 698.500 C 688.472 698.500, 687.428 698.043, 684.842 695.150 L 681.849 691.799 682.174 678.315 L 682.500 664.831 685.766 661.915 C 690.875 657.355, 695.266 657.825, 700.551 663.500 C 705.069 668.352, 708.575 669.282, 711.463 666.395 C 713.413 664.444, 712.823 661.944, 709.127 656.500 C 704.478 649.653, 695.926 646.383, 687.395 648.191 M 202.571 649.571 C 201.219 650.924, 201 654.976, 201 678.637 C 201 695.677, 201.394 706.867, 202.035 708.066 C 203.222 710.283, 208.846 710.754, 210.800 708.800 C 211.598 708.002, 212 703.644, 212 695.800 L 212 684 221.500 684 L 231 684 231 694.777 C 231 707.050, 232.150 710, 236.934 710 C 242.360 710, 242.483 709.272, 242.214 678.703 C 242.050 660.029, 241.599 650.221, 240.862 649.333 C 239.484 647.674, 234.807 647.593, 233.200 649.200 C 232.408 649.992, 232 654.244, 232 661.700 L 232 673 222 673 L 212 673 212 662.071 C 212 650.213, 211.135 648, 206.500 648 C 205.204 648, 203.436 648.707, 202.571 649.571 M 307.557 650.223 C 306.241 652.101, 306 656.635, 306 679.531 C 306 709.757, 306.126 710.393, 312.021 709.829 C 317.358 709.318, 318.069 706.895, 317.762 690.248 C 317.618 682.410, 317.735 675.998, 318.022 675.998 C 318.309 675.999, 320.894 680.725, 323.766 686.500 C 328.255 695.526, 329.330 697, 331.422 697 C 333.499 697, 334.706 695.391, 339.678 686 L 345.500 675 345.776 690.701 C 346.002 703.533, 346.350 706.730, 347.681 708.200 C 350.078 710.849, 354.617 710.514, 356.562 707.546 C 357.961 705.410, 358.127 701.599, 357.835 678.198 C 357.465 648.523, 357.354 648, 351.390 648 C 347.521 648, 346.973 648.726, 337.625 666.250 C 334.472 672.163, 331.730 677, 331.533 677 C 331.337 677, 328.166 671.263, 324.487 664.250 C 320.808 657.237, 317.099 650.712, 316.244 649.750 C 314.036 647.263, 309.455 647.513, 307.557 650.223 M 368.750 649.080 C 367.147 650.014, 367 652.531, 367 679.015 C 367 706.579, 367.090 707.978, 368.934 708.965 C 370.041 709.557, 377.858 710, 387.212 710 C 405.030 710, 408 709.216, 408 704.515 C 408 699.672, 405.980 699, 391.429 699 L 378 699 378 691.500 L 378 684 385.750 683.985 C 395.262 683.967, 398.500 682.574, 398.500 678.500 C 398.500 674.426, 395.262 673.033, 385.750 673.015 L 378 673 378 666 L 378 659 391.345 659 C 403.003 659, 404.899 658.769, 406.345 657.171 C 408.614 654.664, 408.465 650.319, 406.066 649.035 C 403.539 647.683, 371.082 647.722, 368.750 649.080 M 461.659 650.076 C 459.244 653.524, 459.154 704.347, 461.557 707.777 C 463.237 710.177, 465.988 710.612, 469.066 708.965 C 470.805 708.034, 471 706.776, 471 696.465 L 471 685 480.929 685 C 491.689 685, 494 684.037, 494 679.551 C 494 675.622, 491.487 674.590, 480.883 674.164 L 471 673.767 471 666.384 L 471 659 486.021 659 L 501.043 659 502.182 656.500 C 503.034 654.630, 503.034 653.370, 502.182 651.500 C 501.144 649.221, 500.489 649, 494.771 648.996 C 491.322 648.994, 482.834 648.703, 475.909 648.350 C 463.463 647.715, 463.299 647.735, 461.659 650.076 M 509.655 649.829 C 508.201 651.435, 508 654.933, 508 678.606 C 508 708.306, 508.316 710, 513.857 710 C 518.949 710, 519 709.695, 519 679 C 519 658.089, 518.677 650.077, 517.800 649.200 C 516.007 647.407, 511.534 647.752, 509.655 649.829 M 530.200 649.200 C 529.323 650.077, 529 658.089, 529 679 C 529 709.682, 529.053 710, 534.129 710 C 539.487 710, 539.998 708.372, 540.026 691.179 L 540.051 675.500 546.180 687 C 557.381 708.018, 558.346 709.468, 561.369 709.822 C 566.965 710.477, 567 710.288, 567 679.449 C 567 648.767, 566.866 648, 561.500 648 C 556.570 648, 556.001 649.894, 555.991 666.321 L 555.981 681.500 549.047 669 C 537.399 648.005, 537.396 648, 534.225 648 C 532.671 648, 530.860 648.540, 530.200 649.200 M 590.079 649.405 C 588.962 650.750, 575.767 696.396, 574.422 703.565 C 573.633 707.770, 575.196 710, 578.931 710 C 582.980 710, 584.752 708.064, 586.255 702 L 587.618 696.500 594.759 696.207 L 601.900 695.914 603.055 700.207 C 605.158 708.025, 606.658 710, 610.490 710 C 616.619 710, 616.733 707.996, 611.617 690.196 C 609.135 681.563, 605.725 669.100, 604.038 662.500 C 602.208 655.340, 600.294 649.996, 599.294 649.250 C 597.041 647.570, 591.525 647.663, 590.079 649.405 M 623.200 649.200 C 622.324 650.076, 622 657.988, 622 678.545 C 622 704.541, 622.140 706.816, 623.829 708.345 C 625.968 710.281, 630.084 710.516, 631.800 708.800 C 632.632 707.968, 633 702.756, 633 691.800 C 633 683.110, 633.352 676, 633.783 676 C 634.214 676, 637.886 682.413, 641.945 690.250 C 651.406 708.522, 652.449 710, 655.868 710 C 660.943 710, 661 709.659, 661 679.371 C 661 655.042, 660.783 650.926, 659.429 649.571 C 657.543 647.686, 652.658 647.502, 651.198 649.261 C 650.615 649.964, 650.007 656.827, 649.826 664.758 C 649.647 672.587, 649.248 678.994, 648.941 678.996 C 648.284 679.001, 640.218 665.493, 637.001 659 C 633.214 651.357, 630.208 648, 627.149 648 C 625.637 648, 623.860 648.540, 623.200 649.200 M 723.571 649.571 C 722.217 650.926, 722 655.042, 722 679.371 C 722 709.581, 722.069 710, 727.045 710 C 732.809 710, 733 708.997, 733 678.743 C 733 648.830, 732.851 648, 727.500 648 C 726.204 648, 724.436 648.707, 723.571 649.571 M 756.142 648.891 C 755.395 649.364, 752.120 659.370, 748.863 671.126 C 737.883 710.756, 738.242 708.521, 742.684 709.636 C 747.255 710.783, 749.824 708.603, 751.652 702.027 L 753.328 696 760.581 696 L 767.834 696 768.951 701.209 C 770.338 707.676, 772.346 710, 776.548 710 C 781.612 710, 782.305 706.101, 778.965 696.407 C 777.845 693.158, 774.464 681.500, 771.451 670.500 C 768.032 658.017, 765.342 650.030, 764.295 649.250 C 762.370 647.815, 758.135 647.629, 756.142 648.891 M 789.750 649.080 C 788.147 650.014, 788 652.530, 788 678.991 C 788 700.990, 788.298 708.066, 789.247 708.653 C 789.933 709.077, 797.354 709.608, 805.738 709.833 C 818.667 710.180, 821.362 709.993, 823.490 708.598 C 826.655 706.525, 826.735 703.040, 823.686 700.174 C 821.584 698.200, 820.304 698, 809.798 698 L 798.226 698 798.671 675.058 C 799.100 652.926, 799.043 652.043, 797.058 650.058 C 794.812 647.812, 792.466 647.498, 789.750 649.080 M 268.750 660.080 C 265.050 662.235, 264 666.395, 264 678.903 C 264 685.749, 264.489 691.980, 265.139 693.405 C 265.765 694.779, 267.871 696.660, 269.819 697.584 C 274.768 699.933, 279.691 698.604, 282.716 694.102 C 284.721 691.120, 284.999 689.469, 284.994 680.602 C 284.988 668.604, 283.844 663.809, 280.331 661.045 C 277.529 658.842, 271.709 658.357, 268.750 660.080 M 592.587 675.714 C 591.666 679.446, 590.677 683.288, 590.389 684.250 C 589.944 685.738, 590.550 686, 594.433 686 C 596.945 686, 599 685.780, 599 685.511 C 599 684.771, 594.811 669.542, 594.517 669.214 C 594.377 669.057, 593.508 671.982, 592.587 675.714 M 759.661 671 C 758.397 674.291, 755.916 685.249, 756.340 685.673 C 756.588 685.922, 758.526 685.985, 760.646 685.813 L 764.500 685.500 762.369 677.500 C 761.197 673.100, 759.978 670.175, 759.661 671 M 289.243 735.250 C 287.992 736.812, 275 776.178, 275 778.408 C 275 779.307, 276.144 780.564, 277.542 781.201 C 279.688 782.179, 280.385 782.058, 282.010 780.430 C 283.070 779.368, 284.557 776.700, 285.315 774.500 L 286.694 770.500 293.098 770.210 L 299.502 769.920 301.286 774.944 C 303.304 780.625, 305.897 782.661, 309 781 C 310.100 780.411, 311 778.966, 311 777.789 C 311 774.984, 300.503 742.907, 297.944 737.890 C 296.337 734.741, 295.415 734, 293.102 734 C 291.531 734, 289.794 734.563, 289.243 735.250 M 329.500 735.662 C 322.381 739.415, 318.771 745.146, 317.512 754.697 C 316.228 764.436, 321.424 775.583, 329.099 779.551 C 335.406 782.813, 349.294 780.057, 351.996 775.007 C 354.703 769.950, 349.674 767.143, 343.505 770.267 C 333.933 775.115, 327 770.162, 327 758.476 C 327 748.075, 330.219 743, 336.817 743 C 339.216 743, 341.714 743.774, 343.273 745 C 346.116 747.236, 348.206 747.495, 351.066 745.965 C 353.674 744.569, 353.501 743.020, 350.357 739.629 C 345.282 734.156, 335.784 732.349, 329.500 735.662 M 371.500 735.662 C 363.056 740.113, 360.053 745.940, 360.022 757.934 C 359.995 768.242, 362.141 773.440, 368.141 777.598 C 373.839 781.546, 383.305 782.211, 388.461 779.024 C 394.562 775.253, 395.717 770.954, 391.139 769.057 C 388.610 768.010, 387.824 768.179, 384.389 770.511 C 379.770 773.645, 375.861 773.312, 372 769.453 C 369.682 767.136, 369.500 766.259, 369.500 757.391 C 369.500 748.151, 369.595 747.745, 372.306 745.413 C 375.898 742.323, 381.894 742.120, 384.500 745 C 386.673 747.401, 391.244 747.616, 393.079 745.405 C 394.183 744.075, 394.157 743.370, 392.922 741.170 C 389.458 734.998, 378.233 732.112, 371.500 735.662 M 412.502 735.575 C 408.178 737.830, 406.050 739.984, 403.808 744.377 C 402.122 747.681, 401.879 749.836, 402.165 758.958 C 402.478 768.948, 402.692 769.914, 405.366 773.417 C 409.714 779.112, 413.493 780.992, 420.600 780.996 C 425.746 780.999, 427.325 780.547, 430.701 778.102 C 436.268 774.069, 438.005 769.206, 437.978 757.730 C 437.954 747.670, 436.284 742.352, 431.882 738.317 C 427.025 733.865, 418.182 732.614, 412.502 735.575 M 449.019 735.477 C 448.128 736.550, 447.890 741.403, 448.147 753.238 C 448.540 771.355, 449.201 773.484, 455.992 778.494 C 458.738 780.520, 460.547 780.999, 465.444 780.996 C 472.695 780.992, 476.632 778.939, 480.105 773.353 C 482.330 769.773, 482.524 768.344, 482.837 753.207 C 483.079 741.501, 482.833 736.504, 481.964 735.457 C 480.477 733.665, 476.614 733.555, 475.196 735.263 C 474.595 735.987, 474.009 743.286, 473.824 752.354 C 473.512 767.593, 473.412 768.252, 471.139 770.091 C 468.779 771.999, 463.484 772.621, 461.390 771.235 C 458.029 769.011, 457 764.092, 457 750.250 C 457 740.811, 456.618 736.018, 455.800 735.200 C 454.146 733.546, 450.498 733.695, 449.019 735.477 M 493.750 735.080 C 492.212 735.976, 492 737.836, 492 750.424 C 492 769.456, 494.109 775.386, 502.410 779.704 C 506.959 782.069, 515.933 781.051, 520.372 777.666 C 525.529 773.732, 527 767.869, 527 751.253 C 527 736.968, 526.254 734, 522.665 734 C 518.431 734, 518 735.563, 517.996 750.950 C 517.993 763.691, 517.746 765.904, 516.011 768.750 C 514.320 771.523, 513.457 772, 510.125 772 C 507.774 772, 505.283 771.241, 503.861 770.091 C 501.588 768.252, 501.488 767.593, 501.176 752.354 C 500.991 743.286, 500.405 735.987, 499.804 735.263 C 498.551 733.754, 496.152 733.681, 493.750 735.080 M 538.166 735.300 C 537.455 736.156, 537.158 743.708, 537.294 757.441 L 537.500 778.283 540.226 780.319 C 542.872 782.295, 543.010 782.301, 544.976 780.522 C 546.794 778.877, 547.002 777.456, 547.017 766.595 L 547.034 754.500 549.187 758 C 563.453 781.193, 565.084 783.096, 568.933 781.036 C 570.925 779.970, 571 779.142, 571 758.165 C 571 742.570, 570.660 736.060, 569.800 735.200 C 568.201 733.601, 563.518 733.670, 562.155 735.314 C 561.538 736.057, 560.942 741.922, 560.782 748.816 L 560.500 761.005 553.140 748.964 C 549.092 742.341, 545.122 736.265, 544.319 735.461 C 542.508 733.651, 539.598 733.574, 538.166 735.300 M 596.852 734.758 C 579.519 735.081, 577.640 735.719, 579.832 740.530 C 580.861 742.789, 581.514 743, 587.479 743 L 594 743 594 760.929 C 594 775.894, 594.260 779.117, 595.571 780.429 C 597.414 782.271, 598.438 782.371, 601.066 780.965 C 602.871 779.999, 603 778.697, 603 761.465 L 603 743 608.845 743 C 613.348 743, 615.091 742.557, 616.435 741.072 C 618.155 739.171, 617.866 735, 616.014 735 C 615.546 735, 614.564 734.880, 613.832 734.733 C 613.099 734.586, 605.458 734.597, 596.852 734.758 M 627.200 735.200 C 625.653 736.747, 625.505 776.207, 627.035 779.066 C 628.485 781.776, 633.573 781.666, 635.057 778.893 C 636.561 776.083, 635.249 735.836, 633.619 734.765 C 631.900 733.637, 628.536 733.864, 627.200 735.200 M 649.448 735.084 C 648.316 736.916, 648.990 778.283, 650.176 779.712 C 651.521 781.332, 655.219 781.381, 656.800 779.800 C 657.590 779.010, 658 774.793, 658 767.467 C 658 761.343, 658.299 756.034, 658.665 755.668 C 659.031 755.302, 660.677 757.365, 662.324 760.251 C 667.008 768.467, 675.861 780.733, 677.584 781.394 C 678.442 781.723, 680.012 781.529, 681.072 780.961 C 682.888 779.990, 683 778.625, 683 757.484 L 683 735.038 680.572 734.429 C 679.237 734.094, 677.212 734.115, 676.072 734.477 C 674.214 735.067, 673.999 735.928, 673.991 742.817 C 673.987 747.043, 673.693 752.910, 673.339 755.856 L 672.696 761.213 666.427 751.356 C 655.935 734.862, 655.247 734, 652.569 734 C 651.221 734, 649.817 734.488, 649.448 735.084 M 706.442 735.948 C 698.633 739.425, 694 747.221, 694 756.885 C 694 774.679, 708.248 785.594, 722.642 778.828 C 729.251 775.722, 733 769.560, 733 761.804 L 733 756 723.500 756 L 714 756 714 759.500 L 714 763 719 763 C 724.990 763, 725.541 764.613, 721.077 769.077 C 716.879 773.275, 710.935 773.213, 706.933 768.928 C 700.556 762.102, 702.156 748.131, 709.825 743.665 C 712.711 741.984, 713.665 741.883, 717.059 742.899 C 719.208 743.544, 721.441 744.955, 722.019 746.035 C 723.173 748.192, 726.061 748.573, 729.066 746.965 C 731.554 745.633, 731.511 743.919, 728.905 740.607 C 724.005 734.377, 714.430 732.391, 706.442 735.948 M 413.827 746.019 C 410.828 749.018, 410.810 749.101, 411.154 758.608 C 411.466 767.242, 411.731 768.366, 413.861 770.089 C 417.327 772.895, 423.459 772.632, 426.545 769.545 C 428.793 767.298, 429 766.321, 429 757.969 C 429 749.219, 428.880 748.727, 426.077 745.923 C 422.110 741.957, 417.856 741.990, 413.827 746.019 M 290.913 754.925 L 289.331 761 292.745 761 C 296.073 761, 296.141 760.918, 295.462 757.750 C 295.078 755.962, 294.254 753.229, 293.630 751.675 C 292.515 748.897, 292.470 748.952, 290.913 754.925 M 232.500 752.359 C 230.643 755.193, 231.433 757.822, 234.360 758.549 C 235.537 758.841, 241.621 758.950, 247.880 758.790 C 258.059 758.531, 259.404 758.284, 260.617 756.454 C 261.773 754.710, 261.745 754.081, 260.430 752.204 C 258.980 750.133, 258.136 750, 246.466 750 C 234.519 750, 233.987 750.090, 232.500 752.359 M 749.200 751.200 C 748.540 751.860, 748 753.345, 748 754.500 C 748 758.445, 749.794 759, 762.545 759 C 773.041 759, 774.915 758.752, 776.345 757.171 C 778.562 754.721, 778.430 753.415, 775.777 751.557 C 772.957 749.581, 751.112 749.288, 749.200 751.200" stroke="none" fill="#185575" fill-rule="evenodd"/><path d="M 0 512.001 L 0 1024.002 512.250 1023.751 L 1024.500 1023.500 1024.751 511.750 L 1025.002 0 512.501 0 L 0 0 0 512.001 M 0.496 512.500 C 0.496 794.100, 0.610 909.151, 0.750 768.168 C 0.890 627.186, 0.890 396.786, 0.750 256.168 C 0.610 115.551, 0.496 230.900, 0.496 512.500 M 501.994 217.260 C 499.522 219.514, 486.925 230.148, 474 240.891 C 461.075 251.633, 450.006 260.902, 449.402 261.488 C 448.051 262.799, 424.045 283.005, 406.500 297.599 C 352.374 342.622, 342.982 350.516, 324.520 366.500 C 315.627 374.200, 303.236 384.775, 296.986 390 C 290.736 395.225, 282.220 402.447, 278.061 406.049 C 273.903 409.651, 265.811 416.401, 260.081 421.049 L 249.661 429.500 280.081 430 L 310.500 430.500 310.128 507.577 C 309.923 549.970, 310.066 585.632, 310.445 586.827 L 311.135 589 508.567 589 L 706 589 706 509.500 L 706 430 736.559 430 C 755.838 430, 766.899 429.645, 766.524 429.040 C 766.198 428.511, 756.384 420.329, 744.715 410.856 C 733.047 401.383, 723.275 393.354, 723 393.013 C 722.063 391.852, 697.773 371.528, 686.533 362.500 C 680.370 357.550, 670.767 349.675, 665.192 345 L 655.057 336.500 655.029 306.750 L 655 277 659 277 L 663 277 663 264.393 C 663 253.308, 662.809 251.859, 661.418 252.393 C 660.548 252.727, 647.048 253, 631.418 253 L 603 253 603 265 L 603 277 607.500 277 L 612 277 612 288 C 612 294.050, 611.791 299, 611.536 299 C 611.018 299, 580.169 274.229, 563.981 260.814 C 551.409 250.395, 529.470 232.154, 517.895 222.495 C 513.278 218.642, 508.822 214.965, 507.994 214.325 C 506.773 213.381, 505.640 213.935, 501.994 217.260 M 501.500 315.094 C 470.427 318.895, 453.477 351.412, 467.438 380.438 C 470.794 387.416, 477.214 394.843, 483.522 399.044 C 492.276 404.876, 510.147 406.766, 521.909 403.105 C 543.012 396.537, 555.537 375.421, 552.087 352.225 C 550.076 338.708, 541.074 325.649, 529.801 319.898 C 522.085 315.962, 510.491 313.994, 501.500 315.094 M 504 329.281 C 504 332.364, 503.637 332.792, 500.135 333.841 C 494.595 335.501, 491.402 338.380, 489.459 343.468 C 486.231 351.920, 490.155 359.821, 498.834 362.345 L 503.500 363.702 503.796 370.351 C 504.068 376.479, 503.931 377, 502.046 377 C 499.926 377, 496 373.753, 496 372 C 496 371.450, 493.975 371, 491.500 371 C 489.025 371, 487 371.239, 487 371.532 C 487 373.129, 490.381 379.777, 492.152 381.662 C 493.283 382.865, 496.411 384.379, 499.104 385.025 C 503.775 386.146, 504 386.356, 504 389.600 C 504 392.900, 504.118 393, 508 393 C 511.845 393, 512 392.874, 512.004 389.750 C 512.007 386.816, 512.516 386.257, 517.251 384 C 523.626 380.961, 526.385 376.716, 526.385 369.946 C 526.385 362.709, 522.067 357.575, 514.725 356.081 C 511.516 355.428, 511.499 355.391, 511.204 348.712 C 510.867 341.060, 512.149 340.058, 516.591 344.500 C 518.415 346.324, 520.161 347, 523.045 347 C 527.585 347, 527.919 346.020, 525.005 341.241 C 522.740 337.526, 517.544 334.009, 514.310 334.004 C 512.503 334.001, 512.067 333.346, 511.810 330.250 C 511.517 326.704, 511.296 326.483, 507.750 326.190 C 504.091 325.887, 504 325.962, 504 329.281 M 499 344 C 497.001 345.999, 496.371 350.462, 497.775 352.671 C 498.185 353.315, 499.753 354.151, 501.260 354.529 L 504 355.217 504 348.608 C 504 341.340, 502.782 340.218, 499 344 M 511 370.500 C 511 377.641, 511.970 378.540, 515.811 374.961 C 519.732 371.309, 517.638 364, 512.671 364 C 511.281 364, 511 365.093, 511 370.500 M 504.712 424.784 L 500 429.569 500 461.284 L 500 493 510.500 493 L 521 493 521 461.716 L 521 430.432 515.719 425.216 C 512.814 422.347, 510.209 420, 509.931 420 C 509.653 420, 507.304 422.153, 504.712 424.784 M 356 461.500 L 356 485 373 485 L 390 485 390 461.500 L 390 438 373 438 L 356 438 356 461.500 M 401.232 461.250 L 401.500 484.500 418.250 484.774 L 435 485.048 435 461.524 L 435 438 417.982 438 L 400.963 438 401.232 461.250 M 581.762 438.750 C 581.566 439.163, 581.467 443.100, 581.542 447.500 C 581.618 451.900, 581.751 462.137, 581.840 470.250 L 582 485 598.500 485 L 615 485 615 461.500 L 615 438 598.559 438 C 589.516 438, 581.958 438.337, 581.762 438.750 M 627 461.500 L 627 485 644 485 L 661 485 661 461.500 L 661 438 644 438 L 627 438 627 461.500 M 468.216 454.281 L 463 459.563 463 476.281 L 463 493 474 493 L 485 493 485 476.216 L 485 459.432 479.719 454.216 C 476.814 451.347, 474.211 449, 473.934 449 C 473.658 449, 471.085 451.377, 468.216 454.281 M 541.097 463.750 L 536.028 469.500 536.014 481.250 L 536 493 547 493 L 558 493 558 480.716 L 558 468.432 552.719 463.216 C 549.814 460.347, 547.151 458, 546.801 458 C 546.452 458, 543.885 460.587, 541.097 463.750 M 356 520.500 L 356 544 373 544 L 390 544 390 520.500 L 390 497 373 497 L 356 497 356 520.500 M 402 520.500 L 402 544 418.500 544 L 435 544 435 520.500 L 435 497 418.500 497 L 402 497 402 520.500 M 581 514.353 C 581 523.898, 581.289 534.473, 581.642 537.853 L 582.285 544 598.642 544 L 615 544 615 520.500 L 615 497 598 497 L 581 497 581 514.353 M 627 520.500 L 627 544 644 544 L 661 544 661 520.500 L 661 497 644 497 L 627 497 627 520.500 M 253.035 502.934 C 252.466 503.998, 252 507.148, 252 509.934 L 252 515 245.700 515 C 239.018 515, 237 516.044, 237 519.500 C 237 522.956, 239.018 524, 245.700 524 L 252 524 252 529.800 C 252 535.972, 253.113 538, 256.500 538 C 259.887 538, 261 535.972, 261 529.800 L 261 524 267.300 524 C 273.982 524, 276 522.956, 276 519.500 C 276 516.044, 273.982 515, 267.300 515 L 261 515 261 508.607 C 261 503.700, 260.632 502.073, 259.418 501.607 C 256.493 500.484, 254.077 500.987, 253.035 502.934 M 756.200 502.200 C 755.540 502.860, 755 506.010, 755 509.200 L 755 515 748.750 515.015 C 741.380 515.033, 739.750 515.839, 739.750 519.461 C 739.750 523.541, 741.270 524.339, 748.595 524.102 L 755.273 523.886 754.602 528.944 C 753.852 534.595, 754.911 537.520, 758.071 538.522 C 761.801 539.706, 764 536.488, 764 529.845 L 764 524 770.300 524 C 776.982 524, 779 522.956, 779 519.500 C 779 515.966, 777 515, 769.686 515 L 762.773 515 763.458 510.433 C 764.513 503.397, 760.057 498.343, 756.200 502.200 M 463.699 505.634 C 463.315 506.019, 463 520.783, 463 538.444 C 463 573.700, 462.947 573.370, 469.151 576.578 C 473.167 578.655, 479.042 577.648, 482.141 574.351 L 484.500 571.841 484.500 538.671 L 484.500 505.500 474.449 505.217 C 468.922 505.062, 464.084 505.249, 463.699 505.634 M 500 537.923 L 500 570.847 502.497 573.814 C 503.870 575.446, 506.166 577.076, 507.598 577.435 C 511.176 578.333, 516.560 576.374, 518.984 573.293 C 520.912 570.842, 521 569.301, 521 537.865 L 521 505 510.500 505 L 500 505 500 537.923 M 536 537.050 C 536 572.969, 536.161 573.916, 542.728 576.660 C 547.317 578.577, 551.966 577.729, 555.090 574.405 L 557.500 571.841 557.788 538.421 L 558.077 505 547.038 505 L 536 505 536 537.050 M 257.900 607.978 C 244.232 608.362, 238.863 608.864, 237.650 609.872 C 235.197 611.913, 235.594 616.685, 238.455 619.545 L 240.909 622 508.455 622 C 773.518 622, 776.018 621.982, 777.975 620.025 C 781.404 616.596, 781.624 613.170, 778.609 610.155 L 775.954 607.500 526.227 607.478 C 388.877 607.466, 268.130 607.691, 257.900 607.978 M 270.500 647.933 C 265.099 649.235, 259.929 652.224, 257.603 655.391 C 253.213 661.368, 252.500 664.736, 252.500 679.500 C 252.500 691.994, 252.736 693.940, 254.691 697.595 C 261.660 710.617, 278.046 714.044, 288.684 704.704 C 294.792 699.341, 295.953 695.428, 295.978 680.116 C 295.990 672.755, 295.486 665.018, 294.859 662.922 C 291.850 652.882, 280.062 645.628, 270.500 647.933 M 687.395 648.191 C 682.109 649.311, 675.825 654.713, 673.123 660.462 C 671.286 664.370, 671 666.802, 671 678.521 C 671 693.560, 671.703 696.314, 677.116 702.480 C 685.246 711.739, 699.856 712.403, 707.702 703.868 C 710.792 700.507, 713.256 694.155, 712.554 691.358 C 712.042 689.320, 711.355 689, 707.481 689 C 704.186 689, 703 689.393, 703 690.484 C 703 691.301, 701.687 693.438, 700.082 695.234 C 697.577 698.038, 696.504 698.500, 692.500 698.500 C 688.472 698.500, 687.428 698.043, 684.842 695.150 L 681.849 691.799 682.174 678.315 L 682.500 664.831 685.766 661.915 C 690.875 657.355, 695.266 657.825, 700.551 663.500 C 705.069 668.352, 708.575 669.282, 711.463 666.395 C 713.413 664.444, 712.823 661.944, 709.127 656.500 C 704.478 649.653, 695.926 646.383, 687.395 648.191 M 202.571 649.571 C 201.219 650.924, 201 654.976, 201 678.637 C 201 695.677, 201.394 706.867, 202.035 708.066 C 203.222 710.283, 208.846 710.754, 210.800 708.800 C 211.598 708.002, 212 703.644, 212 695.800 L 212 684 221.500 684 L 231 684 231 694.777 C 231 707.050, 232.150 710, 236.934 710 C 242.360 710, 242.483 709.272, 242.214 678.703 C 242.050 660.029, 241.599 650.221, 240.862 649.333 C 239.484 647.674, 234.807 647.593, 233.200 649.200 C 232.408 649.992, 232 654.244, 232 661.700 L 232 673 222 673 L 212 673 212 662.071 C 212 650.213, 211.135 648, 206.500 648 C 205.204 648, 203.436 648.707, 202.571 649.571 M 307.557 650.223 C 306.241 652.101, 306 656.635, 306 679.531 C 306 709.757, 306.126 710.393, 312.021 709.829 C 317.358 709.318, 318.069 706.895, 317.762 690.248 C 317.618 682.410, 317.735 675.998, 318.022 675.998 C 318.309 675.999, 320.894 680.725, 323.766 686.500 C 328.255 695.526, 329.330 697, 331.422 697 C 333.499 697, 334.706 695.391, 339.678 686 L 345.500 675 345.776 690.701 C 346.002 703.533, 346.350 706.730, 347.681 708.200 C 350.078 710.849, 354.617 710.514, 356.562 707.546 C 357.961 705.410, 358.127 701.599, 357.835 678.198 C 357.465 648.523, 357.354 648, 351.390 648 C 347.521 648, 346.973 648.726, 337.625 666.250 C 334.472 672.163, 331.730 677, 331.533 677 C 331.337 677, 328.166 671.263, 324.487 664.250 C 320.808 657.237, 317.099 650.712, 316.244 649.750 C 314.036 647.263, 309.455 647.513, 307.557 650.223 M 368.750 649.080 C 367.147 650.014, 367 652.531, 367 679.015 C 367 706.579, 367.090 707.978, 368.934 708.965 C 370.041 709.557, 377.858 710, 387.212 710 C 405.030 710, 408 709.216, 408 704.515 C 408 699.672, 405.980 699, 391.429 699 L 378 699 378 691.500 L 378 684 385.750 683.985 C 395.262 683.967, 398.500 682.574, 398.500 678.500 C 398.500 674.426, 395.262 673.033, 385.750 673.015 L 378 673 378 666 L 378 659 391.345 659 C 403.003 659, 404.899 658.769, 406.345 657.171 C 408.614 654.664, 408.465 650.319, 406.066 649.035 C 403.539 647.683, 371.082 647.722, 368.750 649.080 M 461.659 650.076 C 459.244 653.524, 459.154 704.347, 461.557 707.777 C 463.237 710.177, 465.988 710.612, 469.066 708.965 C 470.805 708.034, 471 706.776, 471 696.465 L 471 685 480.929 685 C 491.689 685, 494 684.037, 494 679.551 C 494 675.622, 491.487 674.590, 480.883 674.164 L 471 673.767 471 666.384 L 471 659 486.021 659 L 501.043 659 502.182 656.500 C 503.034 654.630, 503.034 653.370, 502.182 651.500 C 501.144 649.221, 500.489 649, 494.771 648.996 C 491.322 648.994, 482.834 648.703, 475.909 648.350 C 463.463 647.715, 463.299 647.735, 461.659 650.076 M 509.655 649.829 C 508.201 651.435, 508 654.933, 508 678.606 C 508 708.306, 508.316 710, 513.857 710 C 518.949 710, 519 709.695, 519 679 C 519 658.089, 518.677 650.077, 517.800 649.200 C 516.007 647.407, 511.534 647.752, 509.655 649.829 M 530.200 649.200 C 529.323 650.077, 529 658.089, 529 679 C 529 709.682, 529.053 710, 534.129 710 C 539.487 710, 539.998 708.372, 540.026 691.179 L 540.051 675.500 546.180 687 C 557.381 708.018, 558.346 709.468, 561.369 709.822 C 566.965 710.477, 567 710.288, 567 679.449 C 567 648.767, 566.866 648, 561.500 648 C 556.570 648, 556.001 649.894, 555.991 666.321 L 555.981 681.500 549.047 669 C 537.399 648.005, 537.396 648, 534.225 648 C 532.671 648, 530.860 648.540, 530.200 649.200 M 590.079 649.405 C 588.962 650.750, 575.767 696.396, 574.422 703.565 C 573.633 707.770, 575.196 710, 578.931 710 C 582.980 710, 584.752 708.064, 586.255 702 L 587.618 696.500 594.759 696.207 L 601.900 695.914 603.055 700.207 C 605.158 708.025, 606.658 710, 610.490 710 C 616.619 710, 616.733 707.996, 611.617 690.196 C 609.135 681.563, 605.725 669.100, 604.038 662.500 C 602.208 655.340, 600.294 649.996, 599.294 649.250 C 597.041 647.570, 591.525 647.663, 590.079 649.405 M 623.200 649.200 C 622.324 650.076, 622 657.988, 622 678.545 C 622 704.541, 622.140 706.816, 623.829 708.345 C 625.968 710.281, 630.084 710.516, 631.800 708.800 C 632.632 707.968, 633 702.756, 633 691.800 C 633 683.110, 633.352 676, 633.783 676 C 634.214 676, 637.886 682.413, 641.945 690.250 C 651.406 708.522, 652.449 710, 655.868 710 C 660.943 710, 661 709.659, 661 679.371 C 661 655.042, 660.783 650.926, 659.429 649.571 C 657.543 647.686, 652.658 647.502, 651.198 649.261 C 650.615 649.964, 650.007 656.827, 649.826 664.758 C 649.647 672.587, 649.248 678.994, 648.941 678.996 C 648.284 679.001, 640.218 665.493, 637.001 659 C 633.214 651.357, 630.208 648, 627.149 648 C 625.637 648, 623.860 648.540, 623.200 649.200 M 723.571 649.571 C 722.217 650.926, 722 655.042, 722 679.371 C 722 709.581, 722.069 710, 727.045 710 C 732.809 710, 733 708.997, 733 678.743 C 733 648.830, 732.851 648, 727.500 648 C 726.204 648, 724.436 648.707, 723.571 649.571 M 756.142 648.891 C 755.395 649.364, 752.120 659.370, 748.863 671.126 C 737.883 710.756, 738.242 708.521, 742.684 709.636 C 747.255 710.783, 749.824 708.603, 751.652 702.027 L 753.328 696 760.581 696 L 767.834 696 768.951 701.209 C 770.338 707.676, 772.346 710, 776.548 710 C 781.612 710, 782.305 706.101, 778.965 696.407 C 777.845 693.158, 774.464 681.500, 771.451 670.500 C 768.032 658.017, 765.342 650.030, 764.295 649.250 C 762.370 647.815, 758.135 647.629, 756.142 648.891 M 789.750 649.080 C 788.147 650.014, 788 652.530, 788 678.991 C 788 700.990, 788.298 708.066, 789.247 708.653 C 789.933 709.077, 797.354 709.608, 805.738 709.833 C 818.667 710.180, 821.362 709.993, 823.490 708.598 C 826.655 706.525, 826.735 703.040, 823.686 700.174 C 821.584 698.200, 820.304 698, 809.798 698 L 798.226 698 798.671 675.058 C 799.100 652.926, 799.043 652.043, 797.058 650.058 C 794.812 647.812, 792.466 647.498, 789.750 649.080 M 268.750 660.080 C 265.050 662.235, 264 666.395, 264 678.903 C 264 685.749, 264.489 691.980, 265.139 693.405 C 265.765 694.779, 267.871 696.660, 269.819 697.584 C 274.768 699.933, 279.691 698.604, 282.716 694.102 C 284.721 691.120, 284.999 689.469, 284.994 680.602 C 284.988 668.604, 283.844 663.809, 280.331 661.045 C 277.529 658.842, 271.709 658.357, 268.750 660.080 M 592.587 675.714 C 591.666 679.446, 590.677 683.288, 590.389 684.250 C 589.944 685.738, 590.550 686, 594.433 686 C 596.945 686, 599 685.780, 599 685.511 C 599 684.771, 594.811 669.542, 594.517 669.214 C 594.377 669.057, 593.508 671.982, 592.587 675.714 M 759.661 671 C 758.397 674.291, 755.916 685.249, 756.340 685.673 C 756.588 685.922, 758.526 685.985, 760.646 685.813 L 764.500 685.500 762.369 677.500 C 761.197 673.100, 759.978 670.175, 759.661 671 M 289.243 735.250 C 287.992 736.812, 275 776.178, 275 778.408 C 275 779.307, 276.144 780.564, 277.542 781.201 C 279.688 782.179, 280.385 782.058, 282.010 780.430 C 283.070 779.368, 284.557 776.700, 285.315 774.500 L 286.694 770.500 293.098 770.210 L 299.502 769.920 301.286 774.944 C 303.304 780.625, 305.897 782.661, 309 781 C 310.100 780.411, 311 778.966, 311 777.789 C 311 774.984, 300.503 742.907, 297.944 737.890 C 296.337 734.741, 295.415 734, 293.102 734 C 291.531 734, 289.794 734.563, 289.243 735.250 M 329.500 735.662 C 322.381 739.415, 318.771 745.146, 317.512 754.697 C 316.228 764.436, 321.424 775.583, 329.099 779.551 C 335.406 782.813, 349.294 780.057, 351.996 775.007 C 354.703 769.950, 349.674 767.143, 343.505 770.267 C 333.933 775.115, 327 770.162, 327 758.476 C 327 748.075, 330.219 743, 336.817 743 C 339.216 743, 341.714 743.774, 343.273 745 C 346.116 747.236, 348.206 747.495, 351.066 745.965 C 353.674 744.569, 353.501 743.020, 350.357 739.629 C 345.282 734.156, 335.784 732.349, 329.500 735.662 M 371.500 735.662 C 363.056 740.113, 360.053 745.940, 360.022 757.934 C 359.995 768.242, 362.141 773.440, 368.141 777.598 C 373.839 781.546, 383.305 782.211, 388.461 779.024 C 394.562 775.253, 395.717 770.954, 391.139 769.057 C 388.610 768.010, 387.824 768.179, 384.389 770.511 C 379.770 773.645, 375.861 773.312, 372 769.453 C 369.682 767.136, 369.500 766.259, 369.500 757.391 C 369.500 748.151, 369.595 747.745, 372.306 745.413 C 375.898 742.323, 381.894 742.120, 384.500 745 C 386.673 747.401, 391.244 747.616, 393.079 745.405 C 394.183 744.075, 394.157 743.370, 392.922 741.170 C 389.458 734.998, 378.233 732.112, 371.500 735.662 M 412.502 735.575 C 408.178 737.830, 406.050 739.984, 403.808 744.377 C 402.122 747.681, 401.879 749.836, 402.165 758.958 C 402.478 768.948, 402.692 769.914, 405.366 773.417 C 409.714 779.112, 413.493 780.992, 420.600 780.996 C 425.746 780.999, 427.325 780.547, 430.701 778.102 C 436.268 774.069, 438.005 769.206, 437.978 757.730 C 437.954 747.670, 436.284 742.352, 431.882 738.317 C 427.025 733.865, 418.182 732.614, 412.502 735.575 M 449.019 735.477 C 448.128 736.550, 447.890 741.403, 448.147 753.238 C 448.540 771.355, 449.201 773.484, 455.992 778.494 C 458.738 780.520, 460.547 780.999, 465.444 780.996 C 472.695 780.992, 476.632 778.939, 480.105 773.353 C 482.330 769.773, 482.524 768.344, 482.837 753.207 C 483.079 741.501, 482.833 736.504, 481.964 735.457 C 480.477 733.665, 476.614 733.555, 475.196 735.263 C 474.595 735.987, 474.009 743.286, 473.824 752.354 C 473.512 767.593, 473.412 768.252, 471.139 770.091 C 468.779 771.999, 463.484 772.621, 461.390 771.235 C 458.029 769.011, 457 764.092, 457 750.250 C 457 740.811, 456.618 736.018, 455.800 735.200 C 454.146 733.546, 450.498 733.695, 449.019 735.477 M 493.750 735.080 C 492.212 735.976, 492 737.836, 492 750.424 C 492 769.456, 494.109 775.386, 502.410 779.704 C 506.959 782.069, 515.933 781.051, 520.372 777.666 C 525.529 773.732, 527 767.869, 527 751.253 C 527 736.968, 526.254 734, 522.665 734 C 518.431 734, 518 735.563, 517.996 750.950 C 517.993 763.691, 517.746 765.904, 516.011 768.750 C 514.320 771.523, 513.457 772, 510.125 772 C 507.774 772, 505.283 771.241, 503.861 770.091 C 501.588 768.252, 501.488 767.593, 501.176 752.354 C 500.991 743.286, 500.405 735.987, 499.804 735.263 C 498.551 733.754, 496.152 733.681, 493.750 735.080 M 538.166 735.300 C 537.455 736.156, 537.158 743.708, 537.294 757.441 L 537.500 778.283 540.226 780.319 C 542.872 782.295, 543.010 782.301, 544.976 780.522 C 546.794 778.877, 547.002 777.456, 547.017 766.595 L 547.034 754.500 549.187 758 C 563.453 781.193, 565.084 783.096, 568.933 781.036 C 570.925 779.970, 571 779.142, 571 758.165 C 571 742.570, 570.660 736.060, 569.800 735.200 C 568.201 733.601, 563.518 733.670, 562.155 735.314 C 561.538 736.057, 560.942 741.922, 560.782 748.816 L 560.500 761.005 553.140 748.964 C 549.092 742.341, 545.122 736.265, 544.319 735.461 C 542.508 733.651, 539.598 733.574, 538.166 735.300 M 596.852 734.758 C 579.519 735.081, 577.640 735.719, 579.832 740.530 C 580.861 742.789, 581.514 743, 587.479 743 L 594 743 594 760.929 C 594 775.894, 594.260 779.117, 595.571 780.429 C 597.414 782.271, 598.438 782.371, 601.066 780.965 C 602.871 779.999, 603 778.697, 603 761.465 L 603 743 608.845 743 C 613.348 743, 615.091 742.557, 616.435 741.072 C 618.155 739.171, 617.866 735, 616.014 735 C 615.546 735, 614.564 734.880, 613.832 734.733 C 613.099 734.586, 605.458 734.597, 596.852 734.758 M 627.200 735.200 C 625.653 736.747, 625.505 776.207, 627.035 779.066 C 628.485 781.776, 633.573 781.666, 635.057 778.893 C 636.561 776.083, 635.249 735.836, 633.619 734.765 C 631.900 733.637, 628.536 733.864, 627.200 735.200 M 649.448 735.084 C 648.316 736.916, 648.990 778.283, 650.176 779.712 C 651.521 781.332, 655.219 781.381, 656.800 779.800 C 657.590 779.010, 658 774.793, 658 767.467 C 658 761.343, 658.299 756.034, 658.665 755.668 C 659.031 755.302, 660.677 757.365, 662.324 760.251 C 667.008 768.467, 675.861 780.733, 677.584 781.394 C 678.442 781.723, 680.012 781.529, 681.072 780.961 C 682.888 779.990, 683 778.625, 683 757.484 L 683 735.038 680.572 734.429 C 679.237 734.094, 677.212 734.115, 676.072 734.477 C 674.214 735.067, 673.999 735.928, 673.991 742.817 C 673.987 747.043, 673.693 752.910, 673.339 755.856 L 672.696 761.213 666.427 751.356 C 655.935 734.862, 655.247 734, 652.569 734 C 651.221 734, 649.817 734.488, 649.448 735.084 M 706.442 735.948 C 698.633 739.425, 694 747.221, 694 756.885 C 694 774.679, 708.248 785.594, 722.642 778.828 C 729.251 775.722, 733 769.560, 733 761.804 L 733 756 723.500 756 L 714 756 714 759.500 L 714 763 719 763 C 724.990 763, 725.541 764.613, 721.077 769.077 C 716.879 773.275, 710.935 773.213, 706.933 768.928 C 700.556 762.102, 702.156 748.131, 709.825 743.665 C 712.711 741.984, 713.665 741.883, 717.059 742.899 C 719.208 743.544, 721.441 744.955, 722.019 746.035 C 723.173 748.192, 726.061 748.573, 729.066 746.965 C 731.554 745.633, 731.511 743.919, 728.905 740.607 C 724.005 734.377, 714.430 732.391, 706.442 735.948 M 413.827 746.019 C 410.828 749.018, 410.810 749.101, 411.154 758.608 C 411.466 767.242, 411.731 768.366, 413.861 770.089 C 417.327 772.895, 423.459 772.632, 426.545 769.545 C 428.793 767.298, 429 766.321, 429 757.969 C 429 749.219, 428.880 748.727, 426.077 745.923 C 422.110 741.957, 417.856 741.990, 413.827 746.019 M 290.913 754.925 L 289.331 761 292.745 761 C 296.073 761, 296.141 760.918, 295.462 757.750 C 295.078 755.962, 294.254 753.229, 293.630 751.675 C 292.515 748.897, 292.470 748.952, 290.913 754.925 M 232.500 752.359 C 230.643 755.193, 231.433 757.822, 234.360 758.549 C 235.537 758.841, 241.621 758.950, 247.880 758.790 C 258.059 758.531, 259.404 758.284, 260.617 756.454 C 261.773 754.710, 261.745 754.081, 260.430 752.204 C 258.980 750.133, 258.136 750, 246.466 750 C 234.519 750, 233.987 750.090, 232.500 752.359 M 749.200 751.200 C 748.540 751.860, 748 753.345, 748 754.500 C 748 758.445, 749.794 759, 762.545 759 C 773.041 759, 774.915 758.752, 776.345 757.171 C 778.562 754.721, 778.430 753.415, 775.777 751.557 C 772.957 749.581, 751.112 749.288, 749.200 751.200" stroke="none" fill="#f4fbfb" fill-rule="evenodd"/></svg>