<svg xmlns="http://www.w3.org/2000/svg" width="696" height="696" viewBox="0 0 696 696" version="1.1"><path d="M 337.994 53.260 C 335.522 55.514, 322.925 66.148, 310 76.891 C 297.075 87.633, 286.006 96.902, 285.402 97.488 C 284.051 98.799, 260.045 119.005, 242.500 133.599 C 188.374 178.622, 178.982 186.516, 160.520 202.500 C 151.627 210.200, 139.236 220.775, 132.986 226 C 126.736 231.225, 118.220 238.447, 114.061 242.049 C 109.903 245.651, 101.811 252.401, 96.081 257.049 L 85.661 265.500 116.081 266 L 146.500 266.500 146.128 343.577 C 145.923 385.970, 146.066 421.632, 146.445 422.827 L 147.135 425 344.567 425 L 542 425 542 345.500 L 542 266 572.559 266 C 591.838 266, 602.899 265.645, 602.524 265.040 C 602.198 264.511, 592.384 256.329, 580.715 246.856 C 569.047 237.383, 559.275 229.354, 559 229.013 C 558.063 227.852, 533.773 207.528, 522.533 198.500 C 516.370 193.550, 506.767 185.675, 501.192 181 L 491.057 172.500 491.029 142.750 L 491 113 495 113 L 499 113 499 100.393 C 499 89.308, 498.809 87.859, 497.418 88.393 C 496.548 88.727, 483.048 89, 467.418 89 L 439 89 439 101 L 439 113 443.500 113 L 448 113 448 124 C 448 130.050, 447.804 135, 447.566 135 C 446.449 135, 405.261 101.360, 353.895 58.495 C 349.278 54.642, 344.822 50.965, 343.994 50.325 C 342.773 49.381, 341.640 49.935, 337.994 53.260 M 337.500 151.094 C 306.427 154.895, 289.477 187.412, 303.438 216.438 C 306.794 223.416, 313.214 230.843, 319.522 235.044 C 328.276 240.876, 346.147 242.766, 357.909 239.105 C 379.012 232.537, 391.537 211.421, 388.087 188.225 C 386.076 174.708, 377.074 161.649, 365.801 155.898 C 358.085 151.962, 346.491 149.994, 337.500 151.094 M 340 165.281 C 340 168.364, 339.637 168.792, 336.135 169.841 C 330.595 171.501, 327.402 174.380, 325.459 179.468 C 322.231 187.920, 326.155 195.821, 334.834 198.345 L 339.500 199.702 339.796 206.351 C 340.068 212.479, 339.931 213, 338.046 213 C 335.926 213, 332 209.753, 332 208 C 332 207.450, 329.975 207, 327.500 207 C 325.025 207, 323 207.239, 323 207.532 C 323 209.129, 326.381 215.777, 328.152 217.662 C 329.283 218.865, 332.411 220.379, 335.104 221.025 C 339.775 222.146, 340 222.356, 340 225.600 C 340 228.900, 340.118 229, 344 229 C 347.845 229, 348 228.874, 348.004 225.750 C 348.007 222.816, 348.516 222.257, 353.251 220 C 359.626 216.961, 362.385 212.716, 362.385 205.946 C 362.385 198.709, 358.067 193.575, 350.725 192.081 C 347.516 191.428, 347.499 191.391, 347.204 184.712 C 346.867 177.060, 348.149 176.058, 352.591 180.500 C 354.415 182.324, 356.161 183, 359.045 183 C 363.585 183, 363.919 182.020, 361.005 177.241 C 358.740 173.526, 353.544 170.009, 350.310 170.004 C 348.503 170.001, 348.067 169.346, 347.810 166.250 C 347.517 162.704, 347.296 162.483, 343.750 162.190 C 340.091 161.887, 340 161.962, 340 165.281 M 335 180 C 333.001 181.999, 332.371 186.462, 333.775 188.671 C 334.185 189.315, 335.753 190.151, 337.260 190.529 L 340 191.217 340 184.608 C 340 177.340, 338.782 176.218, 335 180 M 347 206.500 C 347 213.641, 347.970 214.540, 351.811 210.961 C 355.732 207.309, 353.638 200, 348.671 200 C 347.281 200, 347 201.093, 347 206.500 M 340.712 260.784 L 336 265.569 336 297.284 L 336 329 346.500 329 L 357 329 357 297.716 L 357 266.432 351.719 261.216 C 348.814 258.347, 346.209 256, 345.931 256 C 345.653 256, 343.304 258.153, 340.712 260.784 M 192 297.500 L 192 321 209 321 L 226 321 226 297.500 L 226 274 209 274 L 192 274 192 297.500 M 237.232 297.250 L 237.500 320.500 254.250 320.774 L 271 321.048 271 297.524 L 271 274 253.982 274 L 236.963 274 237.232 297.250 M 417.762 274.750 C 417.566 275.163, 417.467 279.100, 417.542 283.500 C 417.618 287.900, 417.751 298.137, 417.840 306.250 L 418 321 434.500 321 L 451 321 451 297.500 L 451 274 434.559 274 C 425.516 274, 417.958 274.337, 417.762 274.750 M 463 297.500 L 463 321 480 321 L 497 321 497 297.500 L 497 274 480 274 L 463 274 463 297.500 M 304.216 290.281 L 299 295.563 299 312.281 L 299 329 310 329 L 321 329 321 312.216 L 321 295.432 315.719 290.216 C 312.814 287.347, 310.211 285, 309.934 285 C 309.658 285, 307.085 287.377, 304.216 290.281 M 377.097 299.750 L 372.028 305.500 372.014 317.250 L 372 329 383 329 L 394 329 394 316.716 L 394 304.432 388.719 299.216 C 385.814 296.347, 383.151 294, 382.801 294 C 382.452 294, 379.885 296.587, 377.097 299.750 M 192 356.500 L 192 380 209 380 L 226 380 226 356.500 L 226 333 209 333 L 192 333 192 356.500 M 238 356.500 L 238 380 254.500 380 L 271 380 271 356.500 L 271 333 254.500 333 L 238 333 238 356.500 M 417 350.353 C 417 359.898, 417.289 370.473, 417.642 373.853 L 418.285 380 434.642 380 L 451 380 451 356.500 L 451 333 434 333 L 417 333 417 350.353 M 463 356.500 L 463 380 480 380 L 497 380 497 356.500 L 497 333 480 333 L 463 333 463 356.500 M 89.035 338.934 C 88.466 339.998, 88 343.148, 88 345.934 L 88 351 81.700 351 C 75.018 351, 73 352.044, 73 355.500 C 73 358.956, 75.018 360, 81.700 360 L 88 360 88 365.800 C 88 371.972, 89.113 374, 92.500 374 C 95.887 374, 97 371.972, 97 365.800 L 97 360 103.300 360 C 109.982 360, 112 358.956, 112 355.500 C 112 352.044, 109.982 351, 103.300 351 L 97 351 97 344.607 C 97 339.700, 96.632 338.073, 95.418 337.607 C 92.493 336.484, 90.077 336.987, 89.035 338.934 M 592.200 338.200 C 591.540 338.860, 591 342.010, 591 345.200 L 591 351 584.750 351.015 C 577.380 351.033, 575.750 351.839, 575.750 355.461 C 575.750 359.541, 577.270 360.339, 584.595 360.102 L 591.273 359.886 590.602 364.944 C 589.852 370.595, 590.911 373.520, 594.071 374.522 C 597.801 375.706, 600 372.488, 600 365.845 L 600 360 606.300 360 C 612.982 360, 615 358.956, 615 355.500 C 615 351.966, 613 351, 605.686 351 L 598.773 351 599.458 346.433 C 600.513 339.397, 596.057 334.343, 592.200 338.200 M 299.699 341.634 C 299.315 342.019, 299 356.783, 299 374.444 C 299 409.700, 298.947 409.370, 305.151 412.578 C 309.167 414.655, 315.042 413.648, 318.141 410.351 L 320.500 407.841 320.500 374.671 L 320.500 341.500 310.449 341.217 C 304.922 341.062, 300.084 341.249, 299.699 341.634 M 336 373.923 L 336 406.847 338.497 409.814 C 339.870 411.446, 342.166 413.076, 343.598 413.435 C 347.176 414.333, 352.560 412.374, 354.984 409.293 C 356.912 406.842, 357 405.301, 357 373.865 L 357 341 346.500 341 L 336 341 336 373.923 M 372 373.050 C 372 408.969, 372.161 409.916, 378.728 412.660 C 383.317 414.577, 387.966 413.729, 391.090 410.405 L 393.500 407.841 393.788 374.421 L 394.077 341 383.038 341 L 372 341 372 373.050 M 93.900 443.978 C 80.232 444.362, 74.863 444.864, 73.650 445.872 C 71.197 447.913, 71.594 452.685, 74.455 455.545 L 76.909 458 344.455 458 C 609.518 458, 612.018 457.982, 613.975 456.025 C 617.404 452.596, 617.624 449.170, 614.609 446.155 L 611.954 443.500 362.227 443.478 C 224.877 443.466, 104.130 443.691, 93.900 443.978 M 106.500 483.933 C 101.099 485.235, 95.929 488.224, 93.603 491.391 C 89.213 497.368, 88.500 500.736, 88.500 515.500 C 88.500 527.994, 88.736 529.940, 90.691 533.595 C 97.660 546.617, 114.046 550.044, 124.684 540.704 C 130.792 535.341, 131.953 531.428, 131.978 516.116 C 131.990 508.755, 131.486 501.018, 130.859 498.922 C 127.850 488.882, 116.062 481.628, 106.500 483.933 M 523.395 484.191 C 518.109 485.311, 511.825 490.713, 509.123 496.462 C 507.286 500.370, 507 502.802, 507 514.521 C 507 529.560, 507.703 532.314, 513.116 538.480 C 521.246 547.739, 535.856 548.403, 543.702 539.868 C 546.792 536.507, 549.256 530.155, 548.554 527.358 C 548.042 525.320, 547.355 525, 543.481 525 C 540.186 525, 539 525.393, 539 526.484 C 539 527.301, 537.687 529.438, 536.082 531.234 C 533.577 534.038, 532.504 534.500, 528.500 534.500 C 524.472 534.500, 523.428 534.043, 520.842 531.150 L 517.849 527.799 518.174 514.315 L 518.500 500.831 521.766 497.915 C 526.875 493.355, 531.266 493.825, 536.551 499.500 C 541.069 504.352, 544.575 505.282, 547.463 502.395 C 549.413 500.444, 548.823 497.944, 545.127 492.500 C 540.478 485.653, 531.926 482.383, 523.395 484.191 M 38.571 485.571 C 37.219 486.924, 37 490.976, 37 514.637 C 37 531.677, 37.394 542.867, 38.035 544.066 C 39.222 546.283, 44.846 546.754, 46.800 544.800 C 47.598 544.002, 48 539.644, 48 531.800 L 48 520 57.500 520 L 67 520 67 530.777 C 67 543.050, 68.150 546, 72.934 546 C 78.360 546, 78.483 545.272, 78.214 514.703 C 78.050 496.029, 77.599 486.221, 76.862 485.333 C 75.484 483.674, 70.807 483.593, 69.200 485.200 C 68.408 485.992, 68 490.244, 68 497.700 L 68 509 58 509 L 48 509 48 498.071 C 48 486.213, 47.135 484, 42.500 484 C 41.204 484, 39.436 484.707, 38.571 485.571 M 143.557 486.223 C 142.241 488.101, 142 492.635, 142 515.531 C 142 545.757, 142.126 546.393, 148.021 545.829 C 153.358 545.318, 154.069 542.895, 153.762 526.248 C 153.618 518.410, 153.735 511.998, 154.022 511.998 C 154.309 511.999, 156.894 516.725, 159.766 522.500 C 164.255 531.526, 165.330 533, 167.422 533 C 169.499 533, 170.706 531.391, 175.678 522 L 181.500 511 181.776 526.701 C 182.002 539.533, 182.350 542.730, 183.681 544.200 C 186.078 546.849, 190.617 546.514, 192.562 543.546 C 193.961 541.410, 194.127 537.599, 193.835 514.198 C 193.465 484.523, 193.354 484, 187.390 484 C 183.521 484, 182.973 484.726, 173.625 502.250 C 170.472 508.163, 167.730 513, 167.533 513 C 167.337 513, 164.166 507.262, 160.487 500.250 C 156.808 493.238, 153.099 486.712, 152.244 485.750 C 150.036 483.263, 145.455 483.513, 143.557 486.223 M 204.750 485.080 C 203.147 486.014, 203 488.531, 203 515.015 C 203 542.579, 203.090 543.978, 204.934 544.965 C 206.041 545.557, 213.858 546, 223.212 546 C 241.030 546, 244 545.216, 244 540.515 C 244 535.672, 241.980 535, 227.429 535 L 214 535 214 527.500 L 214 520 221.750 519.985 C 231.262 519.967, 234.500 518.574, 234.500 514.500 C 234.500 510.426, 231.262 509.033, 221.750 509.015 L 214 509 214 502 L 214 495 227.345 495 C 239.003 495, 240.899 494.769, 242.345 493.171 C 244.614 490.664, 244.465 486.319, 242.066 485.035 C 239.539 483.683, 207.082 483.722, 204.750 485.080 M 297.557 486.223 C 296.243 488.099, 296 492.584, 296 515 C 296 537.416, 296.243 541.901, 297.557 543.777 C 299.237 546.177, 301.988 546.612, 305.066 544.965 C 306.805 544.034, 307 542.776, 307 532.465 L 307 521 316.929 521 C 327.689 521, 330 520.037, 330 515.551 C 330 511.622, 327.487 510.590, 316.883 510.164 L 307 509.767 307 502.384 L 307 495 322.021 495 L 337.043 495 338.182 492.500 C 339.001 490.702, 339.021 489.342, 338.254 487.659 C 337.242 485.436, 336.540 485.285, 324.344 484.663 C 302.046 483.526, 299.335 483.684, 297.557 486.223 M 345.655 485.829 C 344.199 487.437, 344 490.973, 344 515.174 C 344 540.561, 344.141 542.818, 345.829 544.345 C 347.968 546.281, 352.084 546.516, 353.800 544.800 C 355.513 543.087, 355.513 486.913, 353.800 485.200 C 352.007 483.407, 347.534 483.752, 345.655 485.829 M 366.200 485.200 C 364.487 486.913, 364.487 543.087, 366.200 544.800 C 367.899 546.499, 372.569 546.288, 374.429 544.429 C 375.721 543.136, 376.005 540.075, 376.026 527.179 L 376.051 511.500 382.180 523 C 393.381 544.018, 394.346 545.468, 397.369 545.822 C 402.965 546.477, 403 546.288, 403 515.449 C 403 484.767, 402.866 484, 397.500 484 C 392.570 484, 392.001 485.894, 391.991 502.321 L 391.981 517.500 385.047 505 C 373.399 484.005, 373.396 484, 370.225 484 C 368.671 484, 366.860 484.540, 366.200 485.200 M 426.079 485.405 C 424.962 486.750, 411.767 532.396, 410.422 539.565 C 409.633 543.770, 411.196 546, 414.931 546 C 418.980 546, 420.752 544.064, 422.255 538 L 423.618 532.500 430.759 532.207 L 437.900 531.914 439.055 536.207 C 441.158 544.025, 442.658 546, 446.490 546 C 452.619 546, 452.733 543.996, 447.617 526.196 C 445.135 517.563, 441.725 505.100, 440.038 498.500 C 438.208 491.340, 436.294 485.996, 435.294 485.250 C 433.041 483.570, 427.525 483.663, 426.079 485.405 M 459.200 485.200 C 458.324 486.076, 458 493.988, 458 514.545 C 458 540.541, 458.140 542.816, 459.829 544.345 C 461.968 546.281, 466.084 546.516, 467.800 544.800 C 468.632 543.968, 469 538.756, 469 527.800 C 469 519.110, 469.352 512, 469.783 512 C 470.214 512, 473.886 518.413, 477.945 526.250 C 487.406 544.522, 488.449 546, 491.868 546 C 496.943 546, 497 545.659, 497 515.371 C 497 491.042, 496.783 486.926, 495.429 485.571 C 493.543 483.686, 488.658 483.502, 487.198 485.261 C 486.615 485.964, 486.007 492.827, 485.826 500.758 C 485.647 508.587, 485.248 514.994, 484.941 514.996 C 484.284 515.001, 476.218 501.493, 473.001 495 C 469.214 487.357, 466.208 484, 463.149 484 C 461.637 484, 459.860 484.540, 459.200 485.200 M 559.571 485.571 C 558.217 486.926, 558 491.042, 558 515.371 C 558 545.581, 558.069 546, 563.045 546 C 568.809 546, 569 544.997, 569 514.743 C 569 484.830, 568.851 484, 563.500 484 C 562.204 484, 560.436 484.707, 559.571 485.571 M 592.142 484.891 C 591.395 485.364, 588.120 495.370, 584.863 507.126 C 573.883 546.756, 574.242 544.521, 578.684 545.636 C 583.255 546.783, 585.824 544.603, 587.652 538.027 L 589.328 532 596.581 532 L 603.834 532 604.951 537.209 C 606.338 543.676, 608.346 546, 612.548 546 C 617.612 546, 618.305 542.101, 614.965 532.407 C 613.845 529.158, 610.464 517.500, 607.451 506.500 C 604.032 494.017, 601.342 486.030, 600.295 485.250 C 598.370 483.815, 594.135 483.629, 592.142 484.891 M 625.750 485.080 C 624.147 486.014, 624 488.530, 624 514.991 C 624 536.990, 624.298 544.066, 625.247 544.653 C 625.933 545.077, 633.354 545.608, 641.738 545.833 C 654.667 546.180, 657.362 545.993, 659.490 544.598 C 662.655 542.525, 662.735 539.040, 659.686 536.174 C 657.584 534.200, 656.304 534, 645.798 534 L 634.226 534 634.671 511.058 C 635.100 488.926, 635.043 488.043, 633.058 486.058 C 630.812 483.812, 628.466 483.498, 625.750 485.080 M 104.750 496.080 C 101.050 498.235, 100 502.395, 100 514.903 C 100 521.749, 100.489 527.980, 101.139 529.405 C 101.765 530.779, 103.871 532.660, 105.819 533.584 C 110.768 535.933, 115.691 534.604, 118.716 530.102 C 120.721 527.120, 120.999 525.469, 120.994 516.602 C 120.988 504.604, 119.844 499.809, 116.331 497.045 C 113.529 494.842, 107.709 494.357, 104.750 496.080 M 428.587 511.714 C 427.666 515.446, 426.677 519.288, 426.389 520.250 C 425.944 521.738, 426.550 522, 430.433 522 C 432.945 522, 435 521.780, 435 521.511 C 435 520.771, 430.811 505.542, 430.517 505.214 C 430.377 505.057, 429.508 507.982, 428.587 511.714 M 595.661 507 C 594.397 510.291, 591.916 521.249, 592.340 521.673 C 592.588 521.922, 594.526 521.985, 596.646 521.813 L 600.500 521.500 598.369 513.500 C 597.197 509.100, 595.978 506.175, 595.661 507 M 125.243 571.250 C 123.992 572.812, 111 612.178, 111 614.408 C 111 615.307, 112.144 616.564, 113.542 617.201 C 115.688 618.179, 116.385 618.058, 118.010 616.430 C 119.070 615.368, 120.557 612.700, 121.315 610.500 L 122.694 606.500 129.098 606.210 L 135.502 605.920 137.286 610.944 C 139.304 616.625, 141.897 618.661, 145 617 C 146.100 616.411, 147 614.966, 147 613.789 C 147 610.984, 136.503 578.907, 133.944 573.890 C 132.337 570.741, 131.415 570, 129.102 570 C 127.531 570, 125.794 570.563, 125.243 571.250 M 165.500 571.662 C 158.381 575.415, 154.771 581.146, 153.512 590.697 C 152.228 600.436, 157.424 611.583, 165.099 615.551 C 171.406 618.813, 185.294 616.057, 187.996 611.007 C 190.703 605.950, 185.674 603.143, 179.505 606.267 C 169.933 611.115, 163 606.162, 163 594.476 C 163 584.075, 166.219 579, 172.817 579 C 175.216 579, 177.714 579.774, 179.273 581 C 182.116 583.236, 184.206 583.495, 187.066 581.965 C 189.674 580.569, 189.501 579.020, 186.357 575.629 C 181.282 570.156, 171.784 568.349, 165.500 571.662 M 207.500 571.662 C 199.056 576.113, 196.053 581.940, 196.022 593.934 C 195.995 604.242, 198.141 609.440, 204.141 613.598 C 209.839 617.546, 219.305 618.211, 224.461 615.024 C 230.562 611.253, 231.717 606.954, 227.139 605.057 C 224.610 604.010, 223.824 604.179, 220.389 606.511 C 215.770 609.645, 211.861 609.312, 208 605.453 C 205.682 603.136, 205.500 602.259, 205.500 593.391 C 205.500 584.151, 205.595 583.745, 208.306 581.413 C 211.898 578.323, 217.894 578.120, 220.500 581 C 222.673 583.401, 227.244 583.616, 229.079 581.405 C 230.183 580.075, 230.157 579.370, 228.922 577.170 C 225.458 570.998, 214.233 568.112, 207.500 571.662 M 248.502 571.575 C 244.178 573.830, 242.050 575.984, 239.808 580.377 C 238.122 583.681, 237.879 585.836, 238.165 594.958 C 238.478 604.948, 238.692 605.914, 241.366 609.417 C 245.714 615.112, 249.493 616.992, 256.600 616.996 C 261.746 616.999, 263.325 616.547, 266.701 614.102 C 272.268 610.069, 274.005 605.206, 273.978 593.730 C 273.954 583.670, 272.284 578.352, 267.882 574.317 C 263.025 569.865, 254.182 568.614, 248.502 571.575 M 285.019 571.477 C 284.128 572.550, 283.890 577.403, 284.147 589.238 C 284.540 607.355, 285.201 609.484, 291.992 614.494 C 294.738 616.520, 296.547 616.999, 301.444 616.996 C 308.695 616.992, 312.632 614.939, 316.105 609.353 C 318.330 605.773, 318.524 604.344, 318.837 589.207 C 319.079 577.501, 318.833 572.504, 317.964 571.457 C 316.477 569.665, 312.614 569.555, 311.196 571.263 C 310.595 571.987, 310.009 579.286, 309.824 588.354 C 309.512 603.593, 309.412 604.252, 307.139 606.091 C 304.779 607.999, 299.484 608.621, 297.390 607.235 C 294.029 605.011, 293 600.092, 293 586.250 C 293 576.811, 292.618 572.018, 291.800 571.200 C 290.146 569.546, 286.498 569.695, 285.019 571.477 M 329.750 571.080 C 328.212 571.976, 328 573.836, 328 586.424 C 328 605.456, 330.109 611.386, 338.410 615.704 C 342.959 618.069, 351.933 617.051, 356.372 613.666 C 361.593 609.683, 363 603.921, 363 586.518 C 363 571.703, 362.536 570, 358.500 570 C 354.447 570, 354 571.683, 353.996 586.950 C 353.993 599.691, 353.746 601.904, 352.011 604.750 C 350.320 607.523, 349.457 608, 346.125 608 C 343.774 608, 341.283 607.241, 339.861 606.091 C 337.588 604.252, 337.488 603.593, 337.176 588.354 C 336.991 579.286, 336.405 571.987, 335.804 571.263 C 334.551 569.754, 332.152 569.681, 329.750 571.080 M 374.166 571.300 C 373.455 572.156, 373.158 579.708, 373.294 593.441 L 373.500 614.283 376.226 616.319 C 378.872 618.295, 379.010 618.301, 380.976 616.522 C 382.794 614.877, 383.002 613.456, 383.017 602.595 L 383.034 590.500 385.187 594 C 399.453 617.193, 401.084 619.096, 404.933 617.036 C 406.925 615.970, 407 615.142, 407 594.165 C 407 578.570, 406.660 572.060, 405.800 571.200 C 404.201 569.601, 399.518 569.670, 398.155 571.314 C 397.538 572.057, 396.942 577.922, 396.782 584.816 L 396.500 597.005 389.140 584.964 C 385.092 578.341, 381.122 572.265, 380.319 571.461 C 378.508 569.651, 375.598 569.574, 374.166 571.300 M 432.852 570.758 C 415.519 571.081, 413.640 571.719, 415.832 576.530 C 416.861 578.789, 417.514 579, 423.479 579 L 430 579 430 596.929 C 430 611.894, 430.260 615.117, 431.571 616.429 C 433.414 618.271, 434.438 618.371, 437.066 616.965 C 438.871 615.999, 439 614.697, 439 597.465 L 439 579 444.845 579 C 449.348 579, 451.091 578.557, 452.435 577.072 C 454.155 575.171, 453.866 571, 452.014 571 C 451.546 571, 450.564 570.880, 449.832 570.733 C 449.099 570.586, 441.458 570.597, 432.852 570.758 M 463.200 571.200 C 461.653 572.747, 461.505 612.207, 463.035 615.066 C 464.485 617.776, 469.573 617.666, 471.057 614.893 C 472.561 612.083, 471.249 571.836, 469.619 570.765 C 467.900 569.637, 464.536 569.864, 463.200 571.200 M 485.448 571.084 C 484.316 572.916, 484.990 614.283, 486.176 615.712 C 487.521 617.332, 491.219 617.381, 492.800 615.800 C 493.590 615.010, 494 610.793, 494 603.467 C 494 597.343, 494.299 592.034, 494.665 591.668 C 495.031 591.302, 496.677 593.365, 498.324 596.251 C 503.008 604.467, 511.861 616.733, 513.584 617.394 C 514.442 617.723, 516.012 617.529, 517.072 616.961 C 518.888 615.990, 519 614.625, 519 593.484 L 519 571.038 516.572 570.429 C 515.237 570.094, 513.212 570.115, 512.072 570.477 C 510.214 571.067, 509.999 571.928, 509.991 578.817 C 509.987 583.043, 509.693 588.910, 509.339 591.856 L 508.696 597.213 502.427 587.356 C 491.935 570.862, 491.247 570, 488.569 570 C 487.221 570, 485.817 570.488, 485.448 571.084 M 542.442 571.948 C 534.633 575.425, 530 583.221, 530 592.885 C 530 610.679, 544.248 621.594, 558.642 614.828 C 565.251 611.722, 569 605.560, 569 597.804 L 569 592 559.500 592 L 550 592 550 595.500 L 550 599 555 599 C 560.990 599, 561.541 600.613, 557.077 605.077 C 552.879 609.275, 546.935 609.213, 542.933 604.928 C 536.556 598.102, 538.156 584.131, 545.825 579.665 C 548.711 577.984, 549.665 577.883, 553.059 578.899 C 555.208 579.544, 557.441 580.955, 558.019 582.035 C 559.173 584.192, 562.061 584.573, 565.066 582.965 C 567.554 581.633, 567.511 579.919, 564.905 576.607 C 560.005 570.377, 550.430 568.391, 542.442 571.948 M 249.827 582.019 C 246.828 585.018, 246.810 585.101, 247.154 594.608 C 247.466 603.242, 247.731 604.366, 249.861 606.089 C 253.327 608.895, 259.459 608.632, 262.545 605.545 C 264.793 603.298, 265 602.321, 265 593.969 C 265 585.219, 264.880 584.727, 262.077 581.923 C 258.110 577.957, 253.856 577.990, 249.827 582.019 M 126.913 590.925 L 125.331 597 128.745 597 C 132.073 597, 132.141 596.918, 131.462 593.750 C 131.078 591.962, 130.254 589.229, 129.630 587.675 C 128.515 584.897, 128.470 584.952, 126.913 590.925 M 68.500 588.359 C 66.643 591.193, 67.433 593.822, 70.360 594.549 C 71.537 594.841, 77.621 594.950, 83.880 594.790 C 94.059 594.531, 95.404 594.284, 96.617 592.454 C 97.773 590.710, 97.745 590.081, 96.430 588.204 C 94.980 586.133, 94.136 586, 82.466 586 C 70.519 586, 69.987 586.090, 68.500 588.359 M 585.200 587.200 C 584.540 587.860, 584 589.345, 584 590.500 C 584 594.445, 585.794 595, 598.545 595 C 609.041 595, 610.915 594.752, 612.345 593.171 C 614.562 590.721, 614.430 589.415, 611.777 587.557 C 608.957 585.581, 587.112 585.288, 585.200 587.200" stroke="none" fill="#185575" fill-rule="evenodd"/><path d="M 0 348.001 L 0 696.003 348.250 695.751 L 696.500 695.500 696.751 347.750 L 697.003 0 348.501 0 L 0 0 0 348.001 M 0.494 348.500 C 0.494 539.900, 0.609 618.051, 0.750 522.169 C 0.891 426.287, 0.891 269.687, 0.750 174.169 C 0.609 78.651, 0.494 157.100, 0.494 348.500 M 337.994 53.260 C 335.522 55.514, 322.925 66.148, 310 76.891 C 297.075 87.633, 286.006 96.902, 285.402 97.488 C 284.051 98.799, 260.045 119.005, 242.500 133.599 C 188.374 178.622, 178.982 186.516, 160.520 202.500 C 151.627 210.200, 139.236 220.775, 132.986 226 C 126.736 231.225, 118.220 238.447, 114.061 242.049 C 109.903 245.651, 101.811 252.401, 96.081 257.049 L 85.661 265.500 116.081 266 L 146.500 266.500 146.128 343.577 C 145.923 385.970, 146.066 421.632, 146.445 422.827 L 147.135 425 344.567 425 L 542 425 542 345.500 L 542 266 572.559 266 C 591.838 266, 602.899 265.645, 602.524 265.040 C 602.198 264.511, 592.384 256.329, 580.715 246.856 C 569.047 237.383, 559.275 229.354, 559 229.013 C 558.063 227.852, 533.773 207.528, 522.533 198.500 C 516.370 193.550, 506.767 185.675, 501.192 181 L 491.057 172.500 491.029 142.750 L 491 113 495 113 L 499 113 499 100.393 C 499 89.308, 498.809 87.859, 497.418 88.393 C 496.548 88.727, 483.048 89, 467.418 89 L 439 89 439 101 L 439 113 443.500 113 L 448 113 448 124 C 448 130.050, 447.804 135, 447.566 135 C 446.449 135, 405.261 101.360, 353.895 58.495 C 349.278 54.642, 344.822 50.965, 343.994 50.325 C 342.773 49.381, 341.640 49.935, 337.994 53.260 M 337.500 151.094 C 306.427 154.895, 289.477 187.412, 303.438 216.438 C 306.794 223.416, 313.214 230.843, 319.522 235.044 C 328.276 240.876, 346.147 242.766, 357.909 239.105 C 379.012 232.537, 391.537 211.421, 388.087 188.225 C 386.076 174.708, 377.074 161.649, 365.801 155.898 C 358.085 151.962, 346.491 149.994, 337.500 151.094 M 340 165.281 C 340 168.364, 339.637 168.792, 336.135 169.841 C 330.595 171.501, 327.402 174.380, 325.459 179.468 C 322.231 187.920, 326.155 195.821, 334.834 198.345 L 339.500 199.702 339.796 206.351 C 340.068 212.479, 339.931 213, 338.046 213 C 335.926 213, 332 209.753, 332 208 C 332 207.450, 329.975 207, 327.500 207 C 325.025 207, 323 207.239, 323 207.532 C 323 209.129, 326.381 215.777, 328.152 217.662 C 329.283 218.865, 332.411 220.379, 335.104 221.025 C 339.775 222.146, 340 222.356, 340 225.600 C 340 228.900, 340.118 229, 344 229 C 347.845 229, 348 228.874, 348.004 225.750 C 348.007 222.816, 348.516 222.257, 353.251 220 C 359.626 216.961, 362.385 212.716, 362.385 205.946 C 362.385 198.709, 358.067 193.575, 350.725 192.081 C 347.516 191.428, 347.499 191.391, 347.204 184.712 C 346.867 177.060, 348.149 176.058, 352.591 180.500 C 354.415 182.324, 356.161 183, 359.045 183 C 363.585 183, 363.919 182.020, 361.005 177.241 C 358.740 173.526, 353.544 170.009, 350.310 170.004 C 348.503 170.001, 348.067 169.346, 347.810 166.250 C 347.517 162.704, 347.296 162.483, 343.750 162.190 C 340.091 161.887, 340 161.962, 340 165.281 M 335 180 C 333.001 181.999, 332.371 186.462, 333.775 188.671 C 334.185 189.315, 335.753 190.151, 337.260 190.529 L 340 191.217 340 184.608 C 340 177.340, 338.782 176.218, 335 180 M 347 206.500 C 347 213.641, 347.970 214.540, 351.811 210.961 C 355.732 207.309, 353.638 200, 348.671 200 C 347.281 200, 347 201.093, 347 206.500 M 340.712 260.784 L 336 265.569 336 297.284 L 336 329 346.500 329 L 357 329 357 297.716 L 357 266.432 351.719 261.216 C 348.814 258.347, 346.209 256, 345.931 256 C 345.653 256, 343.304 258.153, 340.712 260.784 M 192 297.500 L 192 321 209 321 L 226 321 226 297.500 L 226 274 209 274 L 192 274 192 297.500 M 237.232 297.250 L 237.500 320.500 254.250 320.774 L 271 321.048 271 297.524 L 271 274 253.982 274 L 236.963 274 237.232 297.250 M 417.762 274.750 C 417.566 275.163, 417.467 279.100, 417.542 283.500 C 417.618 287.900, 417.751 298.137, 417.840 306.250 L 418 321 434.500 321 L 451 321 451 297.500 L 451 274 434.559 274 C 425.516 274, 417.958 274.337, 417.762 274.750 M 463 297.500 L 463 321 480 321 L 497 321 497 297.500 L 497 274 480 274 L 463 274 463 297.500 M 304.216 290.281 L 299 295.563 299 312.281 L 299 329 310 329 L 321 329 321 312.216 L 321 295.432 315.719 290.216 C 312.814 287.347, 310.211 285, 309.934 285 C 309.658 285, 307.085 287.377, 304.216 290.281 M 377.097 299.750 L 372.028 305.500 372.014 317.250 L 372 329 383 329 L 394 329 394 316.716 L 394 304.432 388.719 299.216 C 385.814 296.347, 383.151 294, 382.801 294 C 382.452 294, 379.885 296.587, 377.097 299.750 M 192 356.500 L 192 380 209 380 L 226 380 226 356.500 L 226 333 209 333 L 192 333 192 356.500 M 238 356.500 L 238 380 254.500 380 L 271 380 271 356.500 L 271 333 254.500 333 L 238 333 238 356.500 M 417 350.353 C 417 359.898, 417.289 370.473, 417.642 373.853 L 418.285 380 434.642 380 L 451 380 451 356.500 L 451 333 434 333 L 417 333 417 350.353 M 463 356.500 L 463 380 480 380 L 497 380 497 356.500 L 497 333 480 333 L 463 333 463 356.500 M 89.035 338.934 C 88.466 339.998, 88 343.148, 88 345.934 L 88 351 81.700 351 C 75.018 351, 73 352.044, 73 355.500 C 73 358.956, 75.018 360, 81.700 360 L 88 360 88 365.800 C 88 371.972, 89.113 374, 92.500 374 C 95.887 374, 97 371.972, 97 365.800 L 97 360 103.300 360 C 109.982 360, 112 358.956, 112 355.500 C 112 352.044, 109.982 351, 103.300 351 L 97 351 97 344.607 C 97 339.700, 96.632 338.073, 95.418 337.607 C 92.493 336.484, 90.077 336.987, 89.035 338.934 M 592.200 338.200 C 591.540 338.860, 591 342.010, 591 345.200 L 591 351 584.750 351.015 C 577.380 351.033, 575.750 351.839, 575.750 355.461 C 575.750 359.541, 577.270 360.339, 584.595 360.102 L 591.273 359.886 590.602 364.944 C 589.852 370.595, 590.911 373.520, 594.071 374.522 C 597.801 375.706, 600 372.488, 600 365.845 L 600 360 606.300 360 C 612.982 360, 615 358.956, 615 355.500 C 615 351.966, 613 351, 605.686 351 L 598.773 351 599.458 346.433 C 600.513 339.397, 596.057 334.343, 592.200 338.200 M 299.699 341.634 C 299.315 342.019, 299 356.783, 299 374.444 C 299 409.700, 298.947 409.370, 305.151 412.578 C 309.167 414.655, 315.042 413.648, 318.141 410.351 L 320.500 407.841 320.500 374.671 L 320.500 341.500 310.449 341.217 C 304.922 341.062, 300.084 341.249, 299.699 341.634 M 336 373.923 L 336 406.847 338.497 409.814 C 339.870 411.446, 342.166 413.076, 343.598 413.435 C 347.176 414.333, 352.560 412.374, 354.984 409.293 C 356.912 406.842, 357 405.301, 357 373.865 L 357 341 346.500 341 L 336 341 336 373.923 M 372 373.050 C 372 408.969, 372.161 409.916, 378.728 412.660 C 383.317 414.577, 387.966 413.729, 391.090 410.405 L 393.500 407.841 393.788 374.421 L 394.077 341 383.038 341 L 372 341 372 373.050 M 93.900 443.978 C 80.232 444.362, 74.863 444.864, 73.650 445.872 C 71.197 447.913, 71.594 452.685, 74.455 455.545 L 76.909 458 344.455 458 C 609.518 458, 612.018 457.982, 613.975 456.025 C 617.404 452.596, 617.624 449.170, 614.609 446.155 L 611.954 443.500 362.227 443.478 C 224.877 443.466, 104.130 443.691, 93.900 443.978 M 106.500 483.933 C 101.099 485.235, 95.929 488.224, 93.603 491.391 C 89.213 497.368, 88.500 500.736, 88.500 515.500 C 88.500 527.994, 88.736 529.940, 90.691 533.595 C 97.660 546.617, 114.046 550.044, 124.684 540.704 C 130.792 535.341, 131.953 531.428, 131.978 516.116 C 131.990 508.755, 131.486 501.018, 130.859 498.922 C 127.850 488.882, 116.062 481.628, 106.500 483.933 M 523.395 484.191 C 518.109 485.311, 511.825 490.713, 509.123 496.462 C 507.286 500.370, 507 502.802, 507 514.521 C 507 529.560, 507.703 532.314, 513.116 538.480 C 521.246 547.739, 535.856 548.403, 543.702 539.868 C 546.792 536.507, 549.256 530.155, 548.554 527.358 C 548.042 525.320, 547.355 525, 543.481 525 C 540.186 525, 539 525.393, 539 526.484 C 539 527.301, 537.687 529.438, 536.082 531.234 C 533.577 534.038, 532.504 534.500, 528.500 534.500 C 524.472 534.500, 523.428 534.043, 520.842 531.150 L 517.849 527.799 518.174 514.315 L 518.500 500.831 521.766 497.915 C 526.875 493.355, 531.266 493.825, 536.551 499.500 C 541.069 504.352, 544.575 505.282, 547.463 502.395 C 549.413 500.444, 548.823 497.944, 545.127 492.500 C 540.478 485.653, 531.926 482.383, 523.395 484.191 M 38.571 485.571 C 37.219 486.924, 37 490.976, 37 514.637 C 37 531.677, 37.394 542.867, 38.035 544.066 C 39.222 546.283, 44.846 546.754, 46.800 544.800 C 47.598 544.002, 48 539.644, 48 531.800 L 48 520 57.500 520 L 67 520 67 530.777 C 67 543.050, 68.150 546, 72.934 546 C 78.360 546, 78.483 545.272, 78.214 514.703 C 78.050 496.029, 77.599 486.221, 76.862 485.333 C 75.484 483.674, 70.807 483.593, 69.200 485.200 C 68.408 485.992, 68 490.244, 68 497.700 L 68 509 58 509 L 48 509 48 498.071 C 48 486.213, 47.135 484, 42.500 484 C 41.204 484, 39.436 484.707, 38.571 485.571 M 143.557 486.223 C 142.241 488.101, 142 492.635, 142 515.531 C 142 545.757, 142.126 546.393, 148.021 545.829 C 153.358 545.318, 154.069 542.895, 153.762 526.248 C 153.618 518.410, 153.735 511.998, 154.022 511.998 C 154.309 511.999, 156.894 516.725, 159.766 522.500 C 164.255 531.526, 165.330 533, 167.422 533 C 169.499 533, 170.706 531.391, 175.678 522 L 181.500 511 181.776 526.701 C 182.002 539.533, 182.350 542.730, 183.681 544.200 C 186.078 546.849, 190.617 546.514, 192.562 543.546 C 193.961 541.410, 194.127 537.599, 193.835 514.198 C 193.465 484.523, 193.354 484, 187.390 484 C 183.521 484, 182.973 484.726, 173.625 502.250 C 170.472 508.163, 167.730 513, 167.533 513 C 167.337 513, 164.166 507.262, 160.487 500.250 C 156.808 493.238, 153.099 486.712, 152.244 485.750 C 150.036 483.263, 145.455 483.513, 143.557 486.223 M 204.750 485.080 C 203.147 486.014, 203 488.531, 203 515.015 C 203 542.579, 203.090 543.978, 204.934 544.965 C 206.041 545.557, 213.858 546, 223.212 546 C 241.030 546, 244 545.216, 244 540.515 C 244 535.672, 241.980 535, 227.429 535 L 214 535 214 527.500 L 214 520 221.750 519.985 C 231.262 519.967, 234.500 518.574, 234.500 514.500 C 234.500 510.426, 231.262 509.033, 221.750 509.015 L 214 509 214 502 L 214 495 227.345 495 C 239.003 495, 240.899 494.769, 242.345 493.171 C 244.614 490.664, 244.465 486.319, 242.066 485.035 C 239.539 483.683, 207.082 483.722, 204.750 485.080 M 297.557 486.223 C 296.243 488.099, 296 492.584, 296 515 C 296 537.416, 296.243 541.901, 297.557 543.777 C 299.237 546.177, 301.988 546.612, 305.066 544.965 C 306.805 544.034, 307 542.776, 307 532.465 L 307 521 316.929 521 C 327.689 521, 330 520.037, 330 515.551 C 330 511.622, 327.487 510.590, 316.883 510.164 L 307 509.767 307 502.384 L 307 495 322.021 495 L 337.043 495 338.182 492.500 C 339.001 490.702, 339.021 489.342, 338.254 487.659 C 337.242 485.436, 336.540 485.285, 324.344 484.663 C 302.046 483.526, 299.335 483.684, 297.557 486.223 M 345.655 485.829 C 344.199 487.437, 344 490.973, 344 515.174 C 344 540.561, 344.141 542.818, 345.829 544.345 C 347.968 546.281, 352.084 546.516, 353.800 544.800 C 355.513 543.087, 355.513 486.913, 353.800 485.200 C 352.007 483.407, 347.534 483.752, 345.655 485.829 M 366.200 485.200 C 364.487 486.913, 364.487 543.087, 366.200 544.800 C 367.899 546.499, 372.569 546.288, 374.429 544.429 C 375.721 543.136, 376.005 540.075, 376.026 527.179 L 376.051 511.500 382.180 523 C 393.381 544.018, 394.346 545.468, 397.369 545.822 C 402.965 546.477, 403 546.288, 403 515.449 C 403 484.767, 402.866 484, 397.500 484 C 392.570 484, 392.001 485.894, 391.991 502.321 L 391.981 517.500 385.047 505 C 373.399 484.005, 373.396 484, 370.225 484 C 368.671 484, 366.860 484.540, 366.200 485.200 M 426.079 485.405 C 424.962 486.750, 411.767 532.396, 410.422 539.565 C 409.633 543.770, 411.196 546, 414.931 546 C 418.980 546, 420.752 544.064, 422.255 538 L 423.618 532.500 430.759 532.207 L 437.900 531.914 439.055 536.207 C 441.158 544.025, 442.658 546, 446.490 546 C 452.619 546, 452.733 543.996, 447.617 526.196 C 445.135 517.563, 441.725 505.100, 440.038 498.500 C 438.208 491.340, 436.294 485.996, 435.294 485.250 C 433.041 483.570, 427.525 483.663, 426.079 485.405 M 459.200 485.200 C 458.324 486.076, 458 493.988, 458 514.545 C 458 540.541, 458.140 542.816, 459.829 544.345 C 461.968 546.281, 466.084 546.516, 467.800 544.800 C 468.632 543.968, 469 538.756, 469 527.800 C 469 519.110, 469.352 512, 469.783 512 C 470.214 512, 473.886 518.413, 477.945 526.250 C 487.406 544.522, 488.449 546, 491.868 546 C 496.943 546, 497 545.659, 497 515.371 C 497 491.042, 496.783 486.926, 495.429 485.571 C 493.543 483.686, 488.658 483.502, 487.198 485.261 C 486.615 485.964, 486.007 492.827, 485.826 500.758 C 485.647 508.587, 485.248 514.994, 484.941 514.996 C 484.284 515.001, 476.218 501.493, 473.001 495 C 469.214 487.357, 466.208 484, 463.149 484 C 461.637 484, 459.860 484.540, 459.200 485.200 M 559.571 485.571 C 558.217 486.926, 558 491.042, 558 515.371 C 558 545.581, 558.069 546, 563.045 546 C 568.809 546, 569 544.997, 569 514.743 C 569 484.830, 568.851 484, 563.500 484 C 562.204 484, 560.436 484.707, 559.571 485.571 M 592.142 484.891 C 591.395 485.364, 588.120 495.370, 584.863 507.126 C 573.883 546.756, 574.242 544.521, 578.684 545.636 C 583.255 546.783, 585.824 544.603, 587.652 538.027 L 589.328 532 596.581 532 L 603.834 532 604.951 537.209 C 606.338 543.676, 608.346 546, 612.548 546 C 617.612 546, 618.305 542.101, 614.965 532.407 C 613.845 529.158, 610.464 517.500, 607.451 506.500 C 604.032 494.017, 601.342 486.030, 600.295 485.250 C 598.370 483.815, 594.135 483.629, 592.142 484.891 M 625.750 485.080 C 624.147 486.014, 624 488.530, 624 514.991 C 624 536.990, 624.298 544.066, 625.247 544.653 C 625.933 545.077, 633.354 545.608, 641.738 545.833 C 654.667 546.180, 657.362 545.993, 659.490 544.598 C 662.655 542.525, 662.735 539.040, 659.686 536.174 C 657.584 534.200, 656.304 534, 645.798 534 L 634.226 534 634.671 511.058 C 635.100 488.926, 635.043 488.043, 633.058 486.058 C 630.812 483.812, 628.466 483.498, 625.750 485.080 M 104.750 496.080 C 101.050 498.235, 100 502.395, 100 514.903 C 100 521.749, 100.489 527.980, 101.139 529.405 C 101.765 530.779, 103.871 532.660, 105.819 533.584 C 110.768 535.933, 115.691 534.604, 118.716 530.102 C 120.721 527.120, 120.999 525.469, 120.994 516.602 C 120.988 504.604, 119.844 499.809, 116.331 497.045 C 113.529 494.842, 107.709 494.357, 104.750 496.080 M 428.587 511.714 C 427.666 515.446, 426.677 519.288, 426.389 520.250 C 425.944 521.738, 426.550 522, 430.433 522 C 432.945 522, 435 521.780, 435 521.511 C 435 520.771, 430.811 505.542, 430.517 505.214 C 430.377 505.057, 429.508 507.982, 428.587 511.714 M 595.661 507 C 594.397 510.291, 591.916 521.249, 592.340 521.673 C 592.588 521.922, 594.526 521.985, 596.646 521.813 L 600.500 521.500 598.369 513.500 C 597.197 509.100, 595.978 506.175, 595.661 507 M 125.243 571.250 C 123.992 572.812, 111 612.178, 111 614.408 C 111 615.307, 112.144 616.564, 113.542 617.201 C 115.688 618.179, 116.385 618.058, 118.010 616.430 C 119.070 615.368, 120.557 612.700, 121.315 610.500 L 122.694 606.500 129.098 606.210 L 135.502 605.920 137.286 610.944 C 139.304 616.625, 141.897 618.661, 145 617 C 146.100 616.411, 147 614.966, 147 613.789 C 147 610.984, 136.503 578.907, 133.944 573.890 C 132.337 570.741, 131.415 570, 129.102 570 C 127.531 570, 125.794 570.563, 125.243 571.250 M 165.500 571.662 C 158.381 575.415, 154.771 581.146, 153.512 590.697 C 152.228 600.436, 157.424 611.583, 165.099 615.551 C 171.406 618.813, 185.294 616.057, 187.996 611.007 C 190.703 605.950, 185.674 603.143, 179.505 606.267 C 169.933 611.115, 163 606.162, 163 594.476 C 163 584.075, 166.219 579, 172.817 579 C 175.216 579, 177.714 579.774, 179.273 581 C 182.116 583.236, 184.206 583.495, 187.066 581.965 C 189.674 580.569, 189.501 579.020, 186.357 575.629 C 181.282 570.156, 171.784 568.349, 165.500 571.662 M 207.500 571.662 C 199.056 576.113, 196.053 581.940, 196.022 593.934 C 195.995 604.242, 198.141 609.440, 204.141 613.598 C 209.839 617.546, 219.305 618.211, 224.461 615.024 C 230.562 611.253, 231.717 606.954, 227.139 605.057 C 224.610 604.010, 223.824 604.179, 220.389 606.511 C 215.770 609.645, 211.861 609.312, 208 605.453 C 205.682 603.136, 205.500 602.259, 205.500 593.391 C 205.500 584.151, 205.595 583.745, 208.306 581.413 C 211.898 578.323, 217.894 578.120, 220.500 581 C 222.673 583.401, 227.244 583.616, 229.079 581.405 C 230.183 580.075, 230.157 579.370, 228.922 577.170 C 225.458 570.998, 214.233 568.112, 207.500 571.662 M 248.502 571.575 C 244.178 573.830, 242.050 575.984, 239.808 580.377 C 238.122 583.681, 237.879 585.836, 238.165 594.958 C 238.478 604.948, 238.692 605.914, 241.366 609.417 C 245.714 615.112, 249.493 616.992, 256.600 616.996 C 261.746 616.999, 263.325 616.547, 266.701 614.102 C 272.268 610.069, 274.005 605.206, 273.978 593.730 C 273.954 583.670, 272.284 578.352, 267.882 574.317 C 263.025 569.865, 254.182 568.614, 248.502 571.575 M 285.019 571.477 C 284.128 572.550, 283.890 577.403, 284.147 589.238 C 284.540 607.355, 285.201 609.484, 291.992 614.494 C 294.738 616.520, 296.547 616.999, 301.444 616.996 C 308.695 616.992, 312.632 614.939, 316.105 609.353 C 318.330 605.773, 318.524 604.344, 318.837 589.207 C 319.079 577.501, 318.833 572.504, 317.964 571.457 C 316.477 569.665, 312.614 569.555, 311.196 571.263 C 310.595 571.987, 310.009 579.286, 309.824 588.354 C 309.512 603.593, 309.412 604.252, 307.139 606.091 C 304.779 607.999, 299.484 608.621, 297.390 607.235 C 294.029 605.011, 293 600.092, 293 586.250 C 293 576.811, 292.618 572.018, 291.800 571.200 C 290.146 569.546, 286.498 569.695, 285.019 571.477 M 329.750 571.080 C 328.212 571.976, 328 573.836, 328 586.424 C 328 605.456, 330.109 611.386, 338.410 615.704 C 342.959 618.069, 351.933 617.051, 356.372 613.666 C 361.593 609.683, 363 603.921, 363 586.518 C 363 571.703, 362.536 570, 358.500 570 C 354.447 570, 354 571.683, 353.996 586.950 C 353.993 599.691, 353.746 601.904, 352.011 604.750 C 350.320 607.523, 349.457 608, 346.125 608 C 343.774 608, 341.283 607.241, 339.861 606.091 C 337.588 604.252, 337.488 603.593, 337.176 588.354 C 336.991 579.286, 336.405 571.987, 335.804 571.263 C 334.551 569.754, 332.152 569.681, 329.750 571.080 M 374.166 571.300 C 373.455 572.156, 373.158 579.708, 373.294 593.441 L 373.500 614.283 376.226 616.319 C 378.872 618.295, 379.010 618.301, 380.976 616.522 C 382.794 614.877, 383.002 613.456, 383.017 602.595 L 383.034 590.500 385.187 594 C 399.453 617.193, 401.084 619.096, 404.933 617.036 C 406.925 615.970, 407 615.142, 407 594.165 C 407 578.570, 406.660 572.060, 405.800 571.200 C 404.201 569.601, 399.518 569.670, 398.155 571.314 C 397.538 572.057, 396.942 577.922, 396.782 584.816 L 396.500 597.005 389.140 584.964 C 385.092 578.341, 381.122 572.265, 380.319 571.461 C 378.508 569.651, 375.598 569.574, 374.166 571.300 M 432.852 570.758 C 415.519 571.081, 413.640 571.719, 415.832 576.530 C 416.861 578.789, 417.514 579, 423.479 579 L 430 579 430 596.929 C 430 611.894, 430.260 615.117, 431.571 616.429 C 433.414 618.271, 434.438 618.371, 437.066 616.965 C 438.871 615.999, 439 614.697, 439 597.465 L 439 579 444.845 579 C 449.348 579, 451.091 578.557, 452.435 577.072 C 454.155 575.171, 453.866 571, 452.014 571 C 451.546 571, 450.564 570.880, 449.832 570.733 C 449.099 570.586, 441.458 570.597, 432.852 570.758 M 463.200 571.200 C 461.653 572.747, 461.505 612.207, 463.035 615.066 C 464.485 617.776, 469.573 617.666, 471.057 614.893 C 472.561 612.083, 471.249 571.836, 469.619 570.765 C 467.900 569.637, 464.536 569.864, 463.200 571.200 M 485.448 571.084 C 484.316 572.916, 484.990 614.283, 486.176 615.712 C 487.521 617.332, 491.219 617.381, 492.800 615.800 C 493.590 615.010, 494 610.793, 494 603.467 C 494 597.343, 494.299 592.034, 494.665 591.668 C 495.031 591.302, 496.677 593.365, 498.324 596.251 C 503.008 604.467, 511.861 616.733, 513.584 617.394 C 514.442 617.723, 516.012 617.529, 517.072 616.961 C 518.888 615.990, 519 614.625, 519 593.484 L 519 571.038 516.572 570.429 C 515.237 570.094, 513.212 570.115, 512.072 570.477 C 510.214 571.067, 509.999 571.928, 509.991 578.817 C 509.987 583.043, 509.693 588.910, 509.339 591.856 L 508.696 597.213 502.427 587.356 C 491.935 570.862, 491.247 570, 488.569 570 C 487.221 570, 485.817 570.488, 485.448 571.084 M 542.442 571.948 C 534.633 575.425, 530 583.221, 530 592.885 C 530 610.679, 544.248 621.594, 558.642 614.828 C 565.251 611.722, 569 605.560, 569 597.804 L 569 592 559.500 592 L 550 592 550 595.500 L 550 599 555 599 C 560.990 599, 561.541 600.613, 557.077 605.077 C 552.879 609.275, 546.935 609.213, 542.933 604.928 C 536.556 598.102, 538.156 584.131, 545.825 579.665 C 548.711 577.984, 549.665 577.883, 553.059 578.899 C 555.208 579.544, 557.441 580.955, 558.019 582.035 C 559.173 584.192, 562.061 584.573, 565.066 582.965 C 567.554 581.633, 567.511 579.919, 564.905 576.607 C 560.005 570.377, 550.430 568.391, 542.442 571.948 M 249.827 582.019 C 246.828 585.018, 246.810 585.101, 247.154 594.608 C 247.466 603.242, 247.731 604.366, 249.861 606.089 C 253.327 608.895, 259.459 608.632, 262.545 605.545 C 264.793 603.298, 265 602.321, 265 593.969 C 265 585.219, 264.880 584.727, 262.077 581.923 C 258.110 577.957, 253.856 577.990, 249.827 582.019 M 126.913 590.925 L 125.331 597 128.745 597 C 132.073 597, 132.141 596.918, 131.462 593.750 C 131.078 591.962, 130.254 589.229, 129.630 587.675 C 128.515 584.897, 128.470 584.952, 126.913 590.925 M 68.500 588.359 C 66.643 591.193, 67.433 593.822, 70.360 594.549 C 71.537 594.841, 77.621 594.950, 83.880 594.790 C 94.059 594.531, 95.404 594.284, 96.617 592.454 C 97.773 590.710, 97.745 590.081, 96.430 588.204 C 94.980 586.133, 94.136 586, 82.466 586 C 70.519 586, 69.987 586.090, 68.500 588.359 M 585.200 587.200 C 584.540 587.860, 584 589.345, 584 590.500 C 584 594.445, 585.794 595, 598.545 595 C 609.041 595, 610.915 594.752, 612.345 593.171 C 614.562 590.721, 614.430 589.415, 611.777 587.557 C 608.957 585.581, 587.112 585.288, 585.200 587.200" stroke="none" fill="#f5fbfb" fill-rule="evenodd"/></svg>